<svg width="300" height="697" viewBox="0 0 300 697" fill="none" xmlns="http://www.w3.org/2000/svg">
<path d="M21 141.431L21 183.556L15.7887 187.356L15.7887 138.5L21 141.431Z" fill="#E2FDFF"/>
<path d="M21 223.075L21 265.2L15.7887 269L15.7887 220.144L21 223.075Z" fill="#E2FDFF"/>
<rect x="17.5259" y="168.899" width="73.827" height="1.7371" transform="rotate(90 17.5259 168.899)" fill="#E2FDFF"/>
<path d="M188.667 687C188.667 685.527 187.473 684.333 186 684.333C184.527 684.333 183.333 685.527 183.333 687C183.333 688.473 184.527 689.667 186 689.667C187.473 689.667 188.667 688.473 188.667 687ZM8.99998 687L8.49998 687L8.49998 687.5L8.99998 687.5L8.99998 687ZM11.6667 106C11.6667 104.527 10.4728 103.333 9.00004 103.333C7.52729 103.333 6.33338 104.527 6.33338 106C6.33338 107.473 7.52729 108.667 9.00004 108.667C10.4728 108.667 11.6667 107.473 11.6667 106ZM186 686.5L8.99998 686.5L8.99998 687.5L186 687.5L186 686.5ZM9.49998 687L9.50004 106L8.50004 106L8.49998 687L9.49998 687Z" fill="#E2FDFF"/>
<path d="M269.5 404.25V404.566L269.785 404.702L299.5 418.816V696.5H0.5V10.2071L10.2071 0.5H259.793L269.5 10.2071V207.125V404.25Z" stroke="#E2FDFF"/>
<g opacity="0.5">
<path d="M268.418 498.34L281 498.34L281 500.05L270.11 500.05L270.11 500.266L281 503.146L281 506.008L270.11 508.816L270.11 509.05L281 509.05L281 510.76L268.418 510.76L268.418 507.484L279.29 504.676L279.29 504.478L268.418 501.598L268.418 498.34Z" fill="#E2FDFF"/>
<path d="M271.928 514.007C272.348 514.007 272.75 514.079 273.134 514.223C273.506 514.355 273.848 514.547 274.16 514.799C274.46 515.039 274.724 515.327 274.952 515.663C275.168 515.987 275.324 516.347 275.42 516.743L280.982 514.169L280.982 515.933L275.51 518.471L275.51 521.081L280.982 521.081L280.982 522.791L268.346 522.791L268.346 517.589C268.346 517.097 268.442 516.635 268.634 516.203C268.814 515.759 269.066 515.375 269.39 515.051C269.714 514.727 270.098 514.475 270.542 514.295C270.974 514.103 271.436 514.007 271.928 514.007ZM273.818 517.589C273.818 517.337 273.77 517.097 273.674 516.869C273.566 516.641 273.428 516.443 273.26 516.275C273.092 516.095 272.894 515.957 272.666 515.861C272.438 515.765 272.192 515.717 271.928 515.717C271.664 515.717 271.418 515.765 271.19 515.861C270.962 515.957 270.764 516.095 270.596 516.275C270.416 516.443 270.278 516.641 270.182 516.869C270.086 517.097 270.038 517.337 270.038 517.589L270.038 521.081L273.818 521.081L273.818 517.589Z" fill="#E2FDFF"/>
<path d="M268.256 530.627C268.256 529.991 268.37 529.397 268.598 528.845C268.814 528.293 269.132 527.807 269.552 527.387C269.96 526.967 270.452 526.637 271.028 526.397C271.592 526.157 272.228 526.037 272.936 526.037L276.5 526.037C277.244 526.037 277.91 526.157 278.498 526.397C279.074 526.637 279.56 526.967 279.956 527.387C280.352 527.807 280.658 528.293 280.874 528.845C281.078 529.397 281.18 529.991 281.18 530.627C281.18 531.251 281.078 531.845 280.874 532.409C280.658 532.961 280.352 533.447 279.956 533.867C279.56 534.275 279.074 534.599 278.498 534.839C277.91 535.079 277.244 535.199 276.5 535.199L272.936 535.199C272.228 535.199 271.592 535.079 271.028 534.839C270.452 534.599 269.96 534.275 269.552 533.867C269.132 533.447 268.814 532.961 268.598 532.409C268.37 531.845 268.256 531.251 268.256 530.627ZM277.454 527.783C277.358 527.759 277.178 527.741 276.914 527.729C276.638 527.717 276.32 527.711 275.96 527.711C275.588 527.699 275.198 527.693 274.79 527.693C274.37 527.693 273.974 527.699 273.602 527.711C273.218 527.711 272.876 527.723 272.576 527.747C272.276 527.759 272.06 527.783 271.928 527.819C271.328 527.951 270.854 528.233 270.506 528.665C270.146 529.085 269.966 529.739 269.966 530.627C269.966 531.515 270.14 532.169 270.488 532.589C270.836 533.009 271.316 533.285 271.928 533.417C272.06 533.441 272.276 533.465 272.576 533.489C272.876 533.513 273.218 533.531 273.602 533.543C273.974 533.543 274.37 533.543 274.79 533.543C275.198 533.543 275.582 533.543 275.942 533.543C276.302 533.531 276.62 533.519 276.896 533.507C277.16 533.483 277.34 533.465 277.436 533.453L277.454 533.453C278.078 533.321 278.57 533.045 278.93 532.625C279.29 532.205 279.47 531.551 279.47 530.663C279.47 529.763 279.29 529.091 278.93 528.647C278.57 528.203 278.078 527.915 277.454 527.783Z" fill="#E2FDFF"/>
<path d="M268.382 537.635L270.11 537.635L270.11 544.439L273.746 544.439L273.746 539.345L275.438 539.345L275.438 544.439L281 544.439L281 546.131L268.382 546.131L268.382 537.635Z" fill="#E2FDFF"/>
<path d="M268.4 558.366L268.4 556.674L281 556.674L281 560.022L270.092 563.514L270.092 563.964L281 563.964L281 565.656L268.4 565.656L268.4 562.308L279.326 558.798L279.326 558.366L268.4 558.366Z" fill="#E2FDFF"/>
<path d="M268.256 573.493C268.256 572.857 268.37 572.263 268.598 571.711C268.814 571.159 269.132 570.673 269.552 570.253C269.96 569.833 270.452 569.503 271.028 569.263C271.592 569.023 272.228 568.903 272.936 568.903L276.5 568.903C277.244 568.903 277.91 569.023 278.498 569.263C279.074 569.503 279.56 569.833 279.956 570.253C280.352 570.673 280.658 571.159 280.874 571.711C281.078 572.263 281.18 572.857 281.18 573.493C281.18 574.117 281.078 574.711 280.874 575.275C280.658 575.827 280.352 576.313 279.956 576.733C279.56 577.141 279.074 577.465 278.498 577.705C277.91 577.945 277.244 578.065 276.5 578.065L272.936 578.065C272.228 578.065 271.592 577.945 271.028 577.705C270.452 577.465 269.96 577.141 269.552 576.733C269.132 576.313 268.814 575.827 268.598 575.275C268.37 574.711 268.256 574.117 268.256 573.493ZM277.454 570.649C277.358 570.625 277.178 570.607 276.914 570.595C276.638 570.583 276.32 570.577 275.96 570.577C275.588 570.565 275.198 570.559 274.79 570.559C274.37 570.559 273.974 570.565 273.602 570.577C273.218 570.577 272.876 570.589 272.576 570.613C272.276 570.625 272.06 570.649 271.928 570.685C271.328 570.817 270.854 571.099 270.506 571.531C270.146 571.951 269.966 572.605 269.966 573.493C269.966 574.381 270.14 575.035 270.488 575.455C270.836 575.875 271.316 576.151 271.928 576.283C272.06 576.307 272.276 576.331 272.576 576.355C272.876 576.379 273.218 576.397 273.602 576.409C273.974 576.409 274.37 576.409 274.79 576.409C275.198 576.409 275.582 576.409 275.942 576.409C276.302 576.397 276.62 576.385 276.896 576.373C277.16 576.349 277.34 576.331 277.436 576.319L277.454 576.319C278.078 576.187 278.57 575.911 278.93 575.491C279.29 575.071 279.47 574.417 279.47 573.529C279.47 572.629 279.29 571.957 278.93 571.513C278.57 571.069 278.078 570.781 277.454 570.649Z" fill="#E2FDFF"/>
<path d="M279.308 585.666L279.308 584.154L270.092 584.154L270.092 585.666L268.4 585.666L268.4 580.95L270.092 580.95L270.092 582.462L279.308 582.462L279.308 580.95L281 580.95L281 585.666L279.308 585.666Z" fill="#E2FDFF"/>
<path d="M268.4 597.959L268.4 588.545L270.092 588.545L270.092 592.397L281 592.397L281 594.089L270.092 594.089L270.092 597.959L268.4 597.959Z" fill="#E2FDFF"/>
<path d="M268.418 602.411L281 599.045L281 600.809L277.364 601.781L277.364 606.551L281 607.523L281 609.287L268.418 605.921L268.418 602.411ZM275.672 602.249L270.11 603.725L270.11 604.607L275.672 606.101L275.672 602.249Z" fill="#E2FDFF"/>
<path d="M268.31 615.848C268.31 615.2 268.406 614.606 268.598 614.066C268.79 613.526 269.072 613.058 269.444 612.662C269.804 612.254 270.254 611.93 270.794 611.69C271.322 611.45 271.928 611.312 272.612 611.276L272.612 612.968C271.772 613.04 271.13 613.316 270.686 613.796C270.242 614.264 270.02 614.966 270.02 615.902C270.02 616.346 270.08 616.73 270.2 617.054C270.308 617.378 270.464 617.654 270.668 617.882C270.86 618.098 271.088 618.272 271.352 618.404C271.616 618.536 271.904 618.632 272.216 618.692L272.234 618.692C272.378 618.716 272.69 618.74 273.17 618.764C273.65 618.776 274.178 618.782 274.754 618.782C275.318 618.782 275.858 618.776 276.374 618.764C276.89 618.74 277.25 618.704 277.454 618.656C278.066 618.524 278.546 618.248 278.894 617.828C279.242 617.408 279.416 616.754 279.416 615.866C279.416 615.35 279.356 614.912 279.236 614.552C279.116 614.192 278.936 613.898 278.696 613.67C278.456 613.442 278.162 613.274 277.814 613.166C277.454 613.058 277.04 612.992 276.572 612.968L276.572 611.276C277.256 611.276 277.88 611.402 278.444 611.654C278.996 611.894 279.476 612.224 279.884 612.644C280.28 613.064 280.586 613.55 280.802 614.102C281.018 614.654 281.126 615.242 281.126 615.866C281.126 616.49 281.018 617.084 280.802 617.648C280.574 618.2 280.256 618.686 279.848 619.106C279.428 619.514 278.93 619.838 278.354 620.078C277.778 620.318 277.142 620.438 276.446 620.438L272.99 620.438C272.246 620.438 271.586 620.324 271.01 620.096C270.422 619.868 269.93 619.556 269.534 619.16C269.138 618.752 268.838 618.266 268.634 617.702C268.418 617.138 268.31 616.52 268.31 615.848Z" fill="#E2FDFF"/>
<path d="M279.308 628.039L279.308 626.527L270.092 626.527L270.092 628.039L268.4 628.039L268.4 623.323L270.092 623.323L270.092 624.835L279.308 624.835L279.308 623.323L281 623.323L281 628.039L279.308 628.039Z" fill="#E2FDFF"/>
<path d="M279.308 637.192L279.308 630.928L281 630.928L281 638.884L268.4 638.884L268.4 637.192L279.308 637.192Z" fill="#E2FDFF"/>
<path d="M268.4 645.73C268.4 645.238 268.496 644.776 268.688 644.344C268.88 643.9 269.138 643.516 269.462 643.192C269.786 642.868 270.17 642.616 270.614 642.436C271.046 642.244 271.508 642.148 272 642.148C272.492 642.148 272.96 642.244 273.404 642.436C273.836 642.616 274.214 642.868 274.538 643.192C274.862 643.516 275.12 643.9 275.312 644.344C275.492 644.776 275.582 645.238 275.582 645.73L275.582 649.222L281 649.222L281 650.932L268.4 650.932L268.4 645.73ZM273.872 645.73C273.872 645.466 273.824 645.22 273.728 644.992C273.632 644.764 273.5 644.566 273.332 644.398C273.152 644.23 272.948 644.098 272.72 644.002C272.492 643.906 272.252 643.858 272 643.858C271.736 643.858 271.49 643.906 271.262 644.002C271.034 644.098 270.836 644.23 270.668 644.398C270.488 644.566 270.35 644.764 270.254 644.992C270.158 645.22 270.11 645.466 270.11 645.73L270.11 649.222L273.872 649.222L273.872 645.73Z" fill="#E2FDFF"/>
<path d="M268.4 657.778C268.4 657.286 268.496 656.824 268.688 656.392C268.88 655.948 269.138 655.564 269.462 655.24C269.786 654.916 270.17 654.664 270.614 654.484C271.046 654.292 271.508 654.196 272 654.196C272.492 654.196 272.96 654.292 273.404 654.484C273.836 654.664 274.214 654.916 274.538 655.24C274.862 655.564 275.12 655.948 275.312 656.392C275.492 656.824 275.582 657.286 275.582 657.778L275.582 661.27L281 661.27L281 662.98L268.4 662.98L268.4 657.778ZM273.872 657.778C273.872 657.514 273.824 657.268 273.728 657.04C273.632 656.812 273.5 656.614 273.332 656.446C273.152 656.278 272.948 656.146 272.72 656.05C272.492 655.954 272.252 655.906 272 655.906C271.736 655.906 271.49 655.954 271.262 656.05C271.034 656.146 270.836 656.278 270.668 656.446C270.488 656.614 270.35 656.812 270.254 657.04C270.158 657.268 270.11 657.514 270.11 657.778L270.11 661.27L273.872 661.27L273.872 657.778Z" fill="#E2FDFF"/>
<path d="M268.418 669.584L281 666.218L281 667.982L277.364 668.954L277.364 673.724L281 674.696L281 676.46L268.418 673.094L268.418 669.584ZM275.672 669.422L270.11 670.898L270.11 671.78L275.672 673.274L275.672 669.422Z" fill="#E2FDFF"/>
<path d="M274.5 472L279.263 474.5V479.5L274.5 482L269.737 479.5V474.5L274.5 472Z" fill="#E2FDFF"/>
<path d="M269.857 458.991L274.5 455.618L279.143 458.991L277.37 464.45H271.63L269.857 458.991Z" stroke="#E2FDFF"/>
<path d="M274.5 439L279.263 446.5H269.737L274.5 439Z" fill="#E2FDFF"/>
</g>
</svg>
