<svg width="23" height="24" viewBox="0 0 23 24" fill="none" xmlns="http://www.w3.org/2000/svg">
<g opacity="0.7">
<path d="M19.8162 19.5527H13.3309V20.9939H19.8162V19.5527Z" fill="#E2FDFF"/>
<path d="M9.00735 19.5527H2.52205V20.9939H9.00735V19.5527Z" fill="#E2FDFF"/>
<path d="M19.8162 21.7146H12.9706H9.36765H2.52206H0V23.5161H22.3382V21.7146H19.8162Z" fill="#E2FDFF"/>
<path d="M19.4559 11.6262H13.3309V12.7071H19.4559V11.6262Z" fill="#E2FDFF"/>
<path d="M11.1692 5.50139C12.5599 5.50139 13.6912 4.36971 13.6912 2.97933C13.6912 1.58896 12.5599 0.457275 11.1692 0.457275C9.77842 0.457275 8.64709 1.58896 8.64709 2.97933C8.64709 4.36971 9.77842 5.50139 11.1692 5.50139ZM11.1692 1.17786C11.368 1.17786 11.5294 1.33892 11.5294 1.53816C11.5294 1.7374 11.368 1.89845 11.1692 1.89845C10.5732 1.89845 10.0883 2.38341 10.0883 2.97933C10.0883 3.17858 9.92686 3.33963 9.72798 3.33963C9.52909 3.33963 9.36768 3.17858 9.36768 2.97933C9.36768 1.986 10.1758 1.17786 11.1692 1.17786Z" fill="#E2FDFF"/>
<path d="M9.59251 7.82864C10.0454 8.19218 10.5905 8.38385 11.1692 8.38385C11.7478 8.38385 12.2929 8.19218 12.7451 7.829C13.3468 7.34909 13.6912 6.63246 13.6912 5.86179V5.01294C13.0964 5.74938 12.1873 6.22209 11.1692 6.22209C10.151 6.22209 9.24194 5.74938 8.64709 5.01294V5.86179C8.64709 6.63246 8.99154 7.34909 9.59251 7.82864Z" fill="#E2FDFF"/>
<path d="M9.00737 11.6262H2.88237V12.7071H9.00737V11.6262Z" fill="#E2FDFF"/>
<path d="M9.72795 12.707H12.6103V11.0713C12.2273 11.415 11.7233 11.6261 11.1691 11.6261C10.615 11.6261 10.1109 11.415 9.72795 11.0713V12.707Z" fill="#E2FDFF"/>
<path d="M12.6103 9.46441V8.76147C12.1646 8.98306 11.6707 9.10411 11.1691 9.10411C10.6676 9.10411 10.174 8.98342 9.72795 8.76183V9.46441C9.72795 10.2592 10.3743 10.9056 11.1691 10.9056C11.9639 10.9056 12.6103 10.2592 12.6103 9.46441Z" fill="#E2FDFF"/>
<path d="M15.2898 15.3871C15.1896 15.4869 15.1324 15.6263 15.1324 15.7697V18.8322H16.2132V15.7697C16.2132 15.4717 15.9708 15.2292 15.6728 15.2292C15.5298 15.2292 15.39 15.2865 15.2898 15.3871Z" fill="#E2FDFF"/>
<path d="M13.3309 8.27008V10.9056H19.0815C18.9435 7.83881 17.066 5.22956 14.4117 4.03662V5.86151C14.4117 6.79143 14.0176 7.65722 13.3309 8.27008Z" fill="#E2FDFF"/>
<path d="M6.28249 15.3871C6.18233 15.4869 6.12505 15.6263 6.12505 15.7697V18.8322H7.20593V15.7697C7.20593 15.4717 6.96345 15.2292 6.66549 15.2292C6.52245 15.2292 6.38266 15.2865 6.28249 15.3871Z" fill="#E2FDFF"/>
<path d="M9.00739 8.27044C8.32102 7.65758 7.9265 6.79179 7.9265 5.86151V4.03662C5.27222 5.22956 3.39436 7.83881 3.25673 10.9056H9.00739V8.27044ZM6.77788 7.5358C6.26735 8.13641 5.89084 8.82097 5.65881 9.57074C5.61089 9.72531 5.40769 9.86654 5.20808 9.80817C5.01785 9.74945 4.91156 9.54768 4.97029 9.35745C5.23114 8.514 5.65485 7.74405 6.22916 7.06886C6.35814 6.91681 6.58513 6.89844 6.73717 7.02778C6.88849 7.15641 6.90723 7.38411 6.77824 7.53544L6.77788 7.5358Z" fill="#E2FDFF"/>
<path d="M12.6103 17.7515H9.72795V20.9941H12.6103V17.7515Z" fill="#E2FDFF"/>
<path d="M13.3309 16.3103V18.8324H14.4118V15.7699C14.4118 15.4363 14.5461 15.1113 14.7803 14.8771C15.0178 14.6396 15.3348 14.5089 15.6728 14.5089C16.3682 14.5089 16.9338 15.0745 16.9338 15.7699V18.8324H18.375V13.428H3.96323V18.8324H5.4044V15.7699C5.4044 15.4363 5.53879 15.1113 5.77298 14.8771C6.01042 14.6396 6.32748 14.5089 6.66543 14.5089C7.3608 14.5089 7.92646 15.0745 7.92646 15.7699V18.8324H9.00735V16.3103C9.00735 15.5155 9.65371 14.8692 10.4485 14.8692H11.8897C12.6845 14.8692 13.3309 15.5155 13.3309 16.3103Z" fill="#E2FDFF"/>
<path d="M12.6103 16.3104C12.6103 15.913 12.2871 15.5898 11.8897 15.5898H10.4485C10.0511 15.5898 9.72795 15.913 9.72795 16.3104V17.031H12.6103V16.3104Z" fill="#E2FDFF"/>
</g>
</svg>
