<svg width="32" height="32" viewBox="0 0 32 32" fill="none" xmlns="http://www.w3.org/2000/svg">
<g clip-path="url(#clip0_522_762)">
<path d="M6.20711 0.292893C6.39464 0.105357 6.649 0 6.91421 0H12C12.5523 0 13 0.447715 13 1V4C13 4.55228 12.5523 5 12 5H9.41421C9.149 5 8.89464 5.10536 8.70711 5.29289L5.29289 8.70711C5.10536 8.89464 5 9.149 5 9.41421V12C5 12.5523 4.55228 13 4 13H1C0.447715 13 0 12.5523 0 12V6.91421C0 6.649 0.105357 6.39464 0.292893 6.20711L6.20711 0.292893Z" fill="#E2FDFF"/>
<path d="M0.292893 25.7929C0.105356 25.6054 -2.90637e-07 25.351 -3.0223e-07 25.0858L-5.24537e-07 20C-5.48678e-07 19.4477 0.447715 19 0.999999 19L4 19C4.55228 19 5 19.4477 5 20L5 22.5858C5 22.851 5.10536 23.1054 5.29289 23.2929L8.70711 26.7071C8.89464 26.8946 9.149 27 9.41421 27L12 27C12.5523 27 13 27.4477 13 28L13 31C13 31.5523 12.5523 32 12 32L6.91421 32C6.649 32 6.39464 31.8946 6.20711 31.7071L0.292893 25.7929Z" fill="#E2FDFF"/>
<path d="M25.7929 0.292893C25.6054 0.105357 25.351 0 25.0858 0H20C19.4477 0 19 0.447715 19 1V4C19 4.55228 19.4477 5 20 5H22.5858C22.851 5 23.1054 5.10536 23.2929 5.29289L26.7071 8.70711C26.8946 8.89464 27 9.149 27 9.41421V12C27 12.5523 27.4477 13 28 13H31C31.5523 13 32 12.5523 32 12V6.91421C32 6.649 31.8946 6.39464 31.7071 6.20711L25.7929 0.292893Z" fill="#E2FDFF"/>
<path d="M31.7071 25.7929C31.8946 25.6054 32 25.351 32 25.0858L32 20C32 19.4477 31.5523 19 31 19L28 19C27.4477 19 27 19.4477 27 20L27 22.5858C27 22.851 26.8946 23.1054 26.7071 23.2929L23.2929 26.7071C23.1054 26.8946 22.851 27 22.5858 27L20 27C19.4477 27 19 27.4477 19 28L19 31C19 31.5523 19.4477 32 20 32L25.0858 32C25.351 32 25.6054 31.8946 25.7929 31.7071L31.7071 25.7929Z" fill="#E2FDFF"/>
</g>
<defs>
<clipPath id="clip0_522_762">
<rect width="32" height="32" fill="white"/>
</clipPath>
</defs>
</svg>
