<svg width="24" height="23" viewBox="0 0 24 23" fill="none" xmlns="http://www.w3.org/2000/svg">
<g opacity="0.7">
<path d="M14.2316 2.64083C14.7291 2.64083 15.1323 2.23755 15.1323 1.74009C15.1323 1.24263 14.7291 0.839355 14.2316 0.839355C13.7341 0.839355 13.3309 1.24263 13.3309 1.74009C13.3309 2.23755 13.7341 2.64083 14.2316 2.64083Z" fill="#E2FDFF"/>
<path d="M17.2905 5.73784L16.3188 6.70956C16.1779 6.85043 16.1822 7.07418 16.3188 7.21901C16.4632 7.3725 16.758 7.28927 16.8282 7.21901L17.7675 6.27973L18.375 8.40546L18.9824 6.27973L19.9217 7.21901C19.992 7.28927 20.2755 7.37466 20.4312 7.21901C20.572 7.07814 20.572 6.85043 20.4312 6.70956L19.4594 5.73784L20.897 5.16281L19.4594 4.58778L20.4312 3.61607C20.572 3.4752 20.572 3.24749 20.4312 3.10661C20.2903 2.96574 20.0626 2.96574 19.9217 3.10661L18.9824 4.0459L18.375 1.92017L17.7675 4.0459L16.8282 3.10661C16.6873 2.96574 16.4596 2.96574 16.3188 3.10661C16.1779 3.24749 16.1779 3.4752 16.3188 3.61607L17.2905 4.58778L15.8529 5.16281L17.2905 5.73784Z" fill="#E2FDFF"/>
<path d="M7.74633 17.4128C8.24379 17.4128 8.64707 17.0095 8.64707 16.5121C8.64707 16.0146 8.24379 15.6113 7.74633 15.6113C7.24887 15.6113 6.8456 16.0146 6.8456 16.5121C6.8456 17.0095 7.24887 17.4128 7.74633 17.4128Z" fill="#E2FDFF"/>
<path d="M3.96687 17.1981L4.93858 16.2264C5.07945 16.0855 5.07945 15.8578 4.93858 15.717C4.7977 15.5761 4.57 15.5761 4.42912 15.717L3.48984 16.6563L2.88238 14.5305L2.27492 16.6563L1.33564 15.717C1.19476 15.5761 0.967056 15.5761 0.826181 15.717C0.685306 15.8578 0.685306 16.0855 0.826181 16.2264L1.79789 17.1981L0.360321 17.7732L1.79789 18.3482L0.826181 19.3199C0.685306 19.4608 0.686027 19.6881 0.826181 19.8294C1.00056 20.0055 1.26538 19.8996 1.33564 19.8294L2.27492 18.8901L2.88238 21.0158L3.48984 18.8901L4.42912 19.8294C4.49938 19.8996 4.80131 19.9908 4.93858 19.8294C5.07945 19.6885 5.07945 19.4608 4.93858 19.3199L3.96687 18.3482L5.40444 17.7732L3.96687 17.1981Z" fill="#E2FDFF"/>
<path d="M14.2316 14.1705C14.5301 14.1705 14.7721 13.9285 14.7721 13.63C14.7721 13.3316 14.5301 13.0896 14.2316 13.0896C13.9331 13.0896 13.6912 13.3316 13.6912 13.63C13.6912 13.9285 13.9331 14.1705 14.2316 14.1705Z" fill="#E2FDFF"/>
<path d="M6.66549 21.0162C6.96396 21.0162 7.20593 20.7742 7.20593 20.4757C7.20593 20.1773 6.96396 19.9353 6.66549 19.9353C6.36701 19.9353 6.12505 20.1773 6.12505 20.4757C6.12505 20.7742 6.36701 21.0162 6.66549 21.0162Z" fill="#E2FDFF"/>
<path d="M21.4375 10.2071C21.736 10.2071 21.978 9.96514 21.978 9.66666C21.978 9.36818 21.736 9.12622 21.4375 9.12622C21.1391 9.12622 20.8971 9.36818 20.8971 9.66666C20.8971 9.96514 21.1391 10.2071 21.4375 10.2071Z" fill="#E2FDFF"/>
<path d="M10.6287 2.28059C10.9272 2.28059 11.1692 2.03863 11.1692 1.74015C11.1692 1.44167 10.9272 1.19971 10.6287 1.19971C10.3302 1.19971 10.0883 1.44167 10.0883 1.74015C10.0883 2.03863 10.3302 2.28059 10.6287 2.28059Z" fill="#E2FDFF"/>
<path d="M2.52206 0.118896H0V1.56007H3.24265L2.52206 0.118896Z" fill="#E2FDFF"/>
<path d="M5.72867 1.56006H3.96323V3.36153H7.92646C7.71749 2.31307 6.79874 1.56006 5.72867 1.56006Z" fill="#E2FDFF"/>
<path d="M6.38117 8.93763L5.54529 7.32495H0V9.48672H5.98845C6.15923 9.33755 6.29578 9.152 6.38117 8.93763Z" fill="#E2FDFF"/>
<path d="M7.56618 12.7292L4.30948 11.4268L3.26138 12.824L7.20588 13.8101L7.56618 12.7292Z" fill="#E2FDFF"/>
<path d="M6.08465 6.79861L6.91729 8.40552H7.27182L7.95638 6.82167C8.03528 6.63936 8.24713 6.55469 8.4298 6.63395C8.61247 6.71286 8.69642 6.92507 8.61752 7.10738L8.05654 8.40588H9.0142L9.76217 6.81158C9.84612 6.63179 10.0601 6.55361 10.2414 6.63864C10.4215 6.72295 10.499 6.93768 10.4143 7.11783L9.5514 8.95713L9.72794 9.48676H14.7721L14.0731 6.2297C13.8461 5.15963 12.9634 4.35257 11.8753 4.21566L10.8088 4.08235H3.60294C3.4037 4.08235 3.24265 3.9213 3.24265 3.72205V2.28052H0V6.60405H5.76471C5.89946 6.60405 6.02268 6.67899 6.08465 6.79861Z" fill="#E2FDFF"/>
<path d="M0.377274 10.207C0.442127 10.9406 0.704421 11.5365 1.09894 11.9653C1.46212 12.3569 1.93266 12.6051 2.46013 12.692L4.32394 10.207H0.377274Z" fill="#E2FDFF"/>
<path d="M21.9599 12.7473C21.5946 12.382 21.1187 12.1359 20.5869 12.0491L19.4559 13.5699V14.1705H22.6701C22.5912 13.6178 22.3372 13.1246 21.9599 12.7473Z" fill="#E2FDFF"/>
<path d="M19.7975 11.9141L15.853 10.928L15.4927 12.0089L18.7623 13.3167C18.7692 13.2998 19.7975 11.9141 19.7975 11.9141Z" fill="#E2FDFF"/>
<path d="M15.5979 15.6116H18.7353V14.1704H17.6905C16.7476 14.1704 15.924 14.7555 15.5979 15.6116Z" fill="#E2FDFF"/>
<path d="M17.0517 21.5862C17.2725 22.0985 17.7813 22.4574 18.375 22.4574H23.0589V19.9353H17.8771L17.0517 21.5862Z" fill="#E2FDFF"/>
<path d="M19.4559 14.8909V15.9717C19.4559 16.171 19.2949 16.332 19.0956 16.332H15.4927L11.5439 16.8256C10.4558 16.9625 9.57305 17.7696 9.34607 18.8397L8.64709 22.0967H13.6912L13.8905 21.4994L13.0088 19.7357C12.9198 19.5577 12.9919 19.3412 13.1699 19.2522C13.3479 19.1639 13.564 19.2353 13.6534 19.4133L14.4547 21.0155H15.4502L14.8103 19.7354C14.7213 19.5574 14.7934 19.3409 14.9713 19.2519C15.149 19.1636 15.3662 19.2349 15.4549 19.4129L16.2558 21.0151H16.5311L17.3323 19.4129C17.3936 19.2908 17.5183 19.2137 17.6548 19.2137H23.0592V14.8901H19.4563L19.4559 14.8909Z" fill="#E2FDFF"/>
<path d="M12.5498 12.1692C12.4395 12.0035 12.2162 11.9588 12.0501 12.0694L11.5294 12.4167V11.2883C11.5294 11.089 11.3684 10.928 11.1691 10.928C10.9699 10.928 10.8088 11.089 10.8088 11.2883V12.4167L10.2882 12.0694C10.1221 11.9588 9.89874 12.0035 9.78849 12.1692C9.67788 12.3349 9.72255 12.5583 9.88829 12.6689L10.5195 13.0897L9.88829 13.5106C9.72255 13.6212 9.6804 13.8428 9.78849 14.0103C9.92396 14.2196 10.2266 14.1512 10.2882 14.1101L10.8088 13.7628V14.8912C10.8088 15.0905 10.9699 15.2515 11.1691 15.2515C11.3684 15.2515 11.5294 15.0905 11.5294 14.8912V13.7628L12.0501 14.1101C12.1117 14.1508 12.432 14.2139 12.5498 14.0103C12.6496 13.8377 12.6157 13.6212 12.45 13.5106L11.8187 13.0897L12.45 12.6689C12.6157 12.5583 12.6604 12.3349 12.5498 12.1692Z" fill="#E2FDFF"/>
</g>
</svg>
