<svg width="32" height="32" viewBox="0 0 32 32" fill="none" xmlns="http://www.w3.org/2000/svg">
<g clip-path="url(#clip0_522_782)">
<path fill-rule="evenodd" clip-rule="evenodd" d="M0 12.2C0 11.6477 0.44921 11.2047 0.999341 11.156C6.38745 10.6795 10.6794 6.38749 11.1558 0.999359C11.2045 0.449221 11.6475 0 12.1998 0H13C13.5523 0 14 0.447715 14 1V13C14 13.5523 13.5523 14 13 14H1C0.447716 14 0 13.5523 0 13V12.2Z" fill="#E2FDFF"/>
<path fill-rule="evenodd" clip-rule="evenodd" d="M11.2 32C11.2 26.1512 6.71678 21.3495 0.999359 20.8439C0.449221 20.7953 -5.09141e-07 20.3522 -5.33282e-07 19.8L-5.68249e-07 19C-5.92389e-07 18.4477 0.447715 18 0.999999 18L13 18C13.5523 18 14 18.4477 14 19L14 31C14 31.5523 13.5523 32 13 32L11.2 32C11.2 32 11.2 32 11.2 32V32Z" fill="#E2FDFF"/>
<path fill-rule="evenodd" clip-rule="evenodd" d="M32 12.2C32 11.6477 31.5508 11.2047 31.0007 11.156C25.6126 10.6795 21.3206 6.38749 20.8442 0.999359C20.7955 0.449221 20.3525 0 19.8002 0H19C18.4477 0 18 0.447715 18 1V13C18 13.5523 18.4477 14 19 14H31C31.5523 14 32 13.5523 32 13V12.2Z" fill="#E2FDFF"/>
<path fill-rule="evenodd" clip-rule="evenodd" d="M20.8 32C20.8 26.1512 25.2832 21.3495 31.0006 20.8439C31.5508 20.7953 32 20.3522 32 19.8L32 19C32 18.4477 31.5523 18 31 18L19 18C18.4477 18 18 18.4477 18 19L18 31C18 31.5523 18.4477 32 19 32L20.8 32C20.8 32 20.8 32 20.8 32V32Z" fill="#E2FDFF"/>
</g>
<defs>
<clipPath id="clip0_522_782">
<rect width="32" height="32" fill="white"/>
</clipPath>
</defs>
</svg>
