<svg width="32" height="32" viewBox="0 0 32 32" fill="none" xmlns="http://www.w3.org/2000/svg">
<g clip-path="url(#clip0_522_802)">
<path d="M5.41421 0.585787C5.78929 0.210714 6.29799 0 6.82843 0H23.1716C24.9534 0 25.8457 2.15428 24.5858 3.41421L3.41421 24.5858C2.15428 25.8457 0 24.9534 0 23.1716V6.82843C0 6.29799 0.210714 5.78929 0.585786 5.41421L5.41421 0.585787Z" fill="#E2FDFF"/>
<path d="M26.5858 31.4142C26.2107 31.7893 25.702 32 25.1716 32L8.82843 32C7.04662 32 6.15428 29.8457 7.41421 28.5858L28.5858 7.41421C29.8457 6.15428 32 7.04661 32 8.82842L32 25.1716C32 25.702 31.7893 26.2107 31.4142 26.5858L26.5858 31.4142Z" fill="#E2FDFF"/>
</g>
<defs>
<clipPath id="clip0_522_802">
<rect width="32" height="32" fill="white"/>
</clipPath>
</defs>
</svg>
