<svg width="24" height="24" viewBox="0 0 24 24" fill="none" xmlns="http://www.w3.org/2000/svg">
<g opacity="0.7">
<path d="M22.731 2.69487C21.9571 0.904932 20.3084 0.442675 19.6479 0.32666L19.6631 0.361969L22.3379 6.53525C22.709 5.98292 23.5078 4.48482 22.731 2.69487Z" fill="#E2FDFF"/>
<path d="M11.8897 17.2942L13.3309 23.0589H15.1323L13.6912 17.2942H11.8897Z" fill="#E2FDFF"/>
<path d="M5.56835 11.751L4.49755 9.27905L1.92037 10.7656L1.63934 10.1171L0 10.8125L1.40515 14.0515L3.04449 13.3597L2.76346 12.7112L5.6296 11.8933L5.56835 11.751Z" fill="#E2FDFF"/>
<path d="M6.48528 23.0589H8.28675L9.72792 17.2942H7.92645L6.48528 23.0589Z" fill="#E2FDFF"/>
<path d="M10.0882 23.0589H11.5294L11.8897 17.2942H9.72795L10.0882 23.0589Z" fill="#E2FDFF"/>
<path d="M10.8521 10.4964C10.6464 10.5818 10.4414 10.433 10.3862 10.2903L9.85696 8.92159C9.14358 9.36403 8.81571 10.2612 9.11908 11.0754C9.24518 11.4105 9.46136 11.6879 9.72798 11.8861C10.2 12.2464 10.8377 12.3581 11.4358 12.1383C11.6015 12.077 11.7528 11.9906 11.8897 11.8897C12.5131 11.4213 12.7833 10.589 12.495 9.82161C12.192 9.00446 11.359 8.53824 10.5322 8.66975L11.0582 10.0306C11.1299 10.2161 11.0376 10.4247 10.8521 10.4964Z" fill="#E2FDFF"/>
<path d="M7.92645 16.5737H13.6912V14.7722H11.8897V12.7211C11.8216 12.7538 11.7539 12.7888 11.6843 12.8147C11.4011 12.9189 11.1064 12.9715 10.8084 12.9715C10.4327 12.9715 10.0626 12.8796 9.72828 12.72V14.7722H7.92681L7.92645 16.5737Z" fill="#E2FDFF"/>
<path d="M12.2489 3.86513C12.2518 3.87125 12.2572 3.87486 12.2601 3.88098L14.7858 9.71054C14.789 9.71847 14.7879 9.7264 14.7908 9.73432L19.4887 8.06364L16.7094 1.64355L12.2489 3.86513ZM13.9729 5.22416C13.7741 5.22416 13.6126 5.06275 13.6126 4.86386C13.6126 4.66498 13.7741 4.50357 13.9729 4.50357C14.1718 4.50357 14.3332 4.66498 14.3332 4.86386C14.3332 5.06275 14.1718 5.22416 13.9729 5.22416ZM17.0952 3.53438C17.1738 3.71741 17.0888 3.92926 16.9061 4.00708L15.2826 4.70281C15.2365 4.72299 14.9111 4.75434 14.8099 4.51366C14.7314 4.33063 14.8164 4.11878 14.9991 4.04095L16.6225 3.34522C16.8038 3.26596 17.0171 3.35099 17.0952 3.53438Z" fill="#E2FDFF"/>
<path d="M8.477 11.4106C8.24244 10.7808 8.23488 10.013 8.51555 9.40085C8.79658 8.78763 9.29955 8.32105 9.92862 8.08794C10.2125 7.98129 10.5094 7.92689 10.811 7.92689C11.858 7.92689 12.8722 8.66333 13.2354 9.64405L13.8475 9.35798L11.8847 4.82764L4.80992 8.18594L5.07294 8.79484L6.22948 11.4646L6.4925 12.0735L8.477 11.4106Z" fill="#E2FDFF"/>
<path d="M19.0019 0.64853L18.7209 0L17.0815 0.691765L17.3553 1.32228L20.1692 7.82199L20.4503 8.47052L22.0896 7.77515L21.8086 7.12662L19.0019 0.64853Z" fill="#E2FDFF"/>
</g>
</svg>
