<svg width="32" height="32" viewBox="0 0 32 32" fill="none" xmlns="http://www.w3.org/2000/svg">
<g clip-path="url(#clip0_522_767)">
<path d="M15.2929 11.2929L5.70711 1.70711C5.07714 1.07714 5.52331 0 6.41421 0H25.5858C26.4767 0 26.9229 1.07714 26.2929 1.70711L16.7071 11.2929C16.3166 11.6834 15.6834 11.6834 15.2929 11.2929Z" fill="#E2FDFF"/>
<path d="M15.2929 20.7071L5.70711 30.2929C5.07714 30.9229 5.52331 32 6.41421 32H25.5858C26.4767 32 26.9229 30.9229 26.2929 30.2929L16.7071 20.7071C16.3166 20.3166 15.6834 20.3166 15.2929 20.7071Z" fill="#E2FDFF"/>
<path d="M11.2929 16.7071L1.70711 26.2929C1.07714 26.9229 -6.65859e-08 26.4767 -1.05529e-07 25.5858L-9.43545e-07 6.41422C-9.82487e-07 5.52331 1.07714 5.07714 1.70711 5.70711L11.2929 15.2929C11.6834 15.6834 11.6834 16.3166 11.2929 16.7071Z" fill="#E2FDFF"/>
<path d="M20.7071 16.7071L30.2929 26.2929C30.9229 26.9229 32 26.4767 32 25.5858L32 6.41422C32 5.52331 30.9229 5.07714 30.2929 5.70711L20.7071 15.2929C20.3166 15.6834 20.3166 16.3166 20.7071 16.7071Z" fill="#E2FDFF"/>
</g>
<defs>
<clipPath id="clip0_522_767">
<rect width="32" height="32" fill="white"/>
</clipPath>
</defs>
</svg>
