<svg width="32" height="32" viewBox="0 0 32 32" fill="none" xmlns="http://www.w3.org/2000/svg">
<g clip-path="url(#clip0_522_753)">
<path d="M5.91421 0.585787C6.28929 0.210714 6.79799 0 7.32843 0H11C12.1046 0 13 0.895431 13 2V11C13 12.1046 12.1046 13 11 13H2C0.89543 13 0 12.1046 0 11V7.32843C0 6.79799 0.210714 6.28929 0.585786 5.91421L5.91421 0.585787Z" fill="#E2FDFF"/>
<path d="M0.585787 26.0858C0.210714 25.7107 -2.9715e-07 25.202 -3.20336e-07 24.6716L-4.80825e-07 21C-5.29108e-07 19.8954 0.89543 19 2 19L11 19C12.1046 19 13 19.8954 13 21L13 30C13 31.1046 12.1046 32 11 32L7.32843 32C6.79799 32 6.28929 31.7893 5.91421 31.4142L0.585787 26.0858Z" fill="#E2FDFF"/>
<path d="M26.0858 31.4142C25.7107 31.7893 25.202 32 24.6716 32L21 32C19.8954 32 19 31.1046 19 30L19 21C19 19.8954 19.8954 19 21 19L30 19C31.1046 19 32 19.8954 32 21L32 24.6716C32 25.202 31.7893 25.7107 31.4142 26.0858L26.0858 31.4142Z" fill="#E2FDFF"/>
<path d="M31.4142 5.91421C31.7893 6.28929 32 6.79799 32 7.32843L32 11C32 12.1046 31.1046 13 30 13L21 13C19.8954 13 19 12.1046 19 11L19 2C19 0.895431 19.8954 1.44346e-07 21 1.31174e-07L24.6716 8.73906e-08C25.202 8.10653e-08 25.7107 0.210714 26.0858 0.585786L31.4142 5.91421Z" fill="#E2FDFF"/>
</g>
<defs>
<clipPath id="clip0_522_753">
<rect width="32" height="32" fill="white"/>
</clipPath>
</defs>
</svg>
