<svg width="23" height="24" viewBox="0 0 23 24" fill="none" xmlns="http://www.w3.org/2000/svg">
<g opacity="0.7">
<path d="M11.1691 2.2206C12.3967 2.2206 13.4833 2.52938 14.3992 3.13827C14.6878 3.32851 14.922 3.52739 15.1169 3.71618C15.0427 2.74339 14.6215 1.8686 13.9722 1.21899C13.2553 0.502 12.2644 0.0588379 11.1691 0.0588379C9.08196 0.0588379 7.37777 1.66935 7.22141 3.71618C7.41272 3.53099 7.64223 3.33607 7.92362 3.14908C8.84201 2.53334 9.93442 2.2206 11.1691 2.2206Z" fill="#E2FDFF"/>
<path d="M8.84054 3.45326C9.14535 3.79806 9.74776 4.27689 10.8088 4.36732V4.02216C10.8088 3.91623 10.8553 3.81607 10.936 3.74762C11.0164 3.67916 11.123 3.64926 11.2278 3.66655C11.657 3.73717 12.7685 3.80166 13.4156 3.41146C12.7505 3.09981 11.9985 2.94092 11.1688 2.94092C10.3044 2.94092 9.52474 3.11458 8.84018 3.4529L8.84054 3.45326Z" fill="#E2FDFF"/>
<path d="M8.64708 10.6839C9.33164 11.2496 10.2108 11.5883 11.1691 11.5883C12.1275 11.5883 13.0066 11.2496 13.6912 10.6839C14.5703 9.95613 15.1324 8.85723 15.1324 7.62502V4.84499C15.0246 4.67854 14.6921 4.22133 14.0828 3.79834C13.3698 4.44723 12.1672 4.46957 11.5294 4.42417V4.74303C11.5294 4.94227 11.368 5.10333 11.1691 5.10333C9.50206 5.10333 8.60565 4.31464 8.21184 3.82969C7.63141 4.24366 7.31147 4.68178 7.2059 4.84535V7.62538C7.2059 8.72068 7.64906 9.71149 8.36605 10.4285C8.45612 10.5185 8.5498 10.6047 8.64708 10.6839ZM12.4302 5.82355C12.7285 5.82355 12.9706 6.06567 12.9706 6.364C12.9706 6.66232 12.7285 6.90444 12.4302 6.90444C12.1318 6.90444 11.8897 6.66232 11.8897 6.364C11.8897 6.06567 12.1318 5.82355 12.4302 5.82355ZM11.9993 9.16744C12.143 9.03305 12.37 9.03702 12.5066 9.17789C12.6431 9.31949 12.6435 9.54215 12.5047 9.68086C12.4572 9.72878 12.0147 10.1467 11.1691 10.1467C10.3235 10.1467 9.88109 9.72878 9.83353 9.68086C9.69265 9.53999 9.69265 9.31228 9.83353 9.17141C9.97296 9.03197 10.1985 9.03053 10.3394 9.1678C10.3578 9.18474 10.6298 9.42614 11.1691 9.42614C11.7164 9.42614 11.9881 9.17825 11.9993 9.16744ZM10.8088 7.26473C10.8088 7.06549 10.9703 6.90444 11.1691 6.90444C11.368 6.90444 11.5294 7.06549 11.5294 7.26473V8.34561C11.5294 8.54486 11.368 8.70591 11.1691 8.70591C10.9703 8.70591 10.8088 8.54486 10.8088 8.34561V7.26473ZM9.90811 5.82355C10.2064 5.82355 10.4486 6.06567 10.4486 6.364C10.4486 6.66232 10.2064 6.90444 9.90811 6.90444C9.60979 6.90444 9.36767 6.66232 9.36767 6.364C9.36767 6.06567 9.60979 5.82355 9.90811 5.82355Z" fill="#E2FDFF"/>
<path d="M4.80595 11.9531C5.5024 12.7198 7.99311 15.191 11.1691 15.191C14.3451 15.191 16.8354 12.7198 17.5323 11.9531C17.6944 11.667 17.9325 11.1745 18.2273 10.3523C18.5922 9.33157 18.442 8.24024 17.9059 7.33374C17.4825 9.72898 15.8349 12.2763 13.8684 13.3896C13.0171 13.868 12.1091 14.1102 11.1687 14.1102C10.2284 14.1102 9.32079 13.868 8.47014 13.3903C6.50293 12.2763 4.85531 9.72898 4.4316 7.33374C3.89584 8.24024 3.74524 9.33157 4.11022 10.3523C4.4053 11.1741 4.64345 11.667 4.80523 11.9531H4.80595Z" fill="#E2FDFF"/>
<path d="M3.95173 19.2179L0.151351 18.1133C0.0778509 18.4404 0.0310127 18.7834 0.0119171 19.1412L4.51596 20.5269C4.60315 20.3201 4.61864 20.0895 4.55379 19.8676C4.46551 19.5653 4.24609 19.3282 3.95137 19.2176L3.95173 19.2179Z" fill="#E2FDFF"/>
<path d="M0 23.1176H4.32353V21.2221L0 19.8918V23.1176Z" fill="#E2FDFF"/>
<path d="M9.00731 11.7767V12.8508C10.3854 13.5537 11.9506 13.5541 13.3308 12.8508V11.7764C12.6675 12.1208 11.9264 12.3089 11.1691 12.3089C10.4117 12.3089 9.66953 12.1208 9.00731 11.7767Z" fill="#E2FDFF"/>
<path d="M14.0515 11.3138V12.4055C15.7643 11.1344 17.1435 8.64695 17.2794 6.5223C17.2091 6.4261 16.8676 6.02365 15.853 5.67236V7.6248C15.853 10.0687 14.0839 11.2883 14.0515 11.3138Z" fill="#E2FDFF"/>
<path d="M22.1653 18.0269L18.3682 19.2245C18.0919 19.3286 17.8724 19.5657 17.7842 19.868C17.7193 20.0899 17.7348 20.3205 17.822 20.5273L22.326 19.1412C22.3051 18.7518 22.2507 18.3803 22.1653 18.0269Z" fill="#E2FDFF"/>
<path d="M9.54775 21.316C9.84623 21.316 10.0882 21.074 10.0882 20.7755C10.0882 20.4771 9.84623 20.2351 9.54775 20.2351C9.24927 20.2351 9.00731 20.4771 9.00731 20.7755C9.00731 21.074 9.24927 21.316 9.54775 21.316Z" fill="#E2FDFF"/>
<path d="M8.28679 12.4052V11.3139C8.25544 11.2894 7.97153 11.0523 7.8566 10.9373C6.97244 10.0532 6.48532 8.87682 6.48532 7.6248V5.67236C5.47073 6.02365 5.12917 6.4261 5.05891 6.5223C5.19475 8.64623 6.57359 11.1333 8.28679 12.4052Z" fill="#E2FDFF"/>
<path d="M18.1329 18.5439L21.9517 17.3387C21.7416 16.7914 21.4512 16.2971 21.0809 15.8723C20.3599 15.0425 19.3558 14.4624 18.1239 14.1969C17.8328 14.5125 17.1695 15.1949 16.4208 15.7228C16.3578 15.7671 16.0883 15.8539 15.9186 15.6359C15.804 15.4734 15.8429 15.2486 16.0054 15.1337C16.6799 14.6581 17.2974 14.0265 17.5774 13.7256L17.4473 13.075C16.2821 14.1829 14.0094 15.9119 11.1692 15.9119C8.32897 15.9119 6.05588 14.1829 4.89105 13.075L4.76134 13.7238C5.05138 14.1461 6.94076 16.6325 11.1692 16.6325C12.1326 16.6325 13.0636 16.4823 13.9355 16.1861C14.1247 16.1216 14.3286 16.2232 14.3927 16.4116C14.4569 16.5997 14.356 16.8047 14.1675 16.8688C13.2207 17.1906 12.2119 17.3534 11.1692 17.3534C6.76386 17.3534 4.67379 14.8368 4.21333 14.1965C2.31891 14.6051 0.957354 15.7649 0.3517 17.4223L4.17911 18.5356C4.71414 18.7355 5.09353 19.1445 5.24594 19.6669C5.38645 20.1482 5.31259 20.6523 5.04417 21.0695V23.1189H6.48535V19.5159C6.48535 18.9953 6.7653 18.5424 7.18036 18.2891L6.61722 17.8272C6.46337 17.7008 6.44103 17.4741 6.56714 17.3203C6.6936 17.1665 6.92058 17.1441 7.07443 17.2699L8.05587 18.0744H14.2832L15.2646 17.2699C15.4185 17.1438 15.6458 17.1665 15.7719 17.3203C15.898 17.4741 15.8757 17.7011 15.7219 17.8272L15.1587 18.2891C15.5734 18.5424 15.8537 18.9953 15.8537 19.5159V23.1189H17.2949V21.0695C17.0265 20.6527 16.9526 20.1482 17.0931 19.6669C17.2455 19.1448 17.6249 18.7355 18.1337 18.5446L18.1329 18.5439ZM15.18 16.3868C14.9811 16.3868 14.8197 16.2254 14.8197 16.0265C14.8197 15.8276 14.9811 15.6662 15.18 15.6662C15.3789 15.6662 15.5403 15.8276 15.5403 16.0265C15.5403 16.2254 15.3789 16.3868 15.18 16.3868Z" fill="#E2FDFF"/>
<path d="M18.0147 21.2221V23.1176H22.3383V19.8918L18.0147 21.2221Z" fill="#E2FDFF"/>
<path d="M14.4118 18.7942H7.92649C7.52909 18.7942 7.2059 19.1174 7.2059 19.5148V23.1177H15.1324V19.5148C15.1324 19.1174 14.8092 18.7942 14.4118 18.7942ZM9.54781 22.0368C8.85245 22.0368 8.28678 21.4712 8.28678 20.7758C8.28678 20.0804 8.85245 19.5148 9.54781 19.5148C10.2432 19.5148 10.8088 20.0804 10.8088 20.7758C10.8088 21.4712 10.2432 22.0368 9.54781 22.0368ZM12.7905 22.0368C12.0951 22.0368 11.5294 21.4712 11.5294 20.7758C11.5294 20.0804 12.0951 19.5148 12.7905 19.5148C13.4858 19.5148 14.0515 20.0804 14.0515 20.7758C14.0515 21.4712 13.4858 22.0368 12.7905 22.0368Z" fill="#E2FDFF"/>
<path d="M12.7904 21.316C13.0889 21.316 13.3309 21.074 13.3309 20.7755C13.3309 20.4771 13.0889 20.2351 12.7904 20.2351C12.492 20.2351 12.25 20.4771 12.25 20.7755C12.25 21.074 12.492 21.316 12.7904 21.316Z" fill="#E2FDFF"/>
</g>
</svg>
