<svg width="120" height="121" viewBox="0 0 120 121" fill="none" xmlns="http://www.w3.org/2000/svg">
<g filter="url(#filter0_d_537_854)">
<mask id="path-1-inside-1_537_854" fill="white">
<path fill-rule="evenodd" clip-rule="evenodd" d="M57.0168 50.1592L60.0006 53.1431L62.9844 50.1592L62.9844 33.7484L62.9847 33.7482L60.0008 30.7644L57.0171 33.7481L57.0168 33.7481L57.0168 50.1592Z"/>
</mask>
<path fill-rule="evenodd" clip-rule="evenodd" d="M57.0168 50.1592L60.0006 53.1431L62.9844 50.1592L62.9844 33.7484L62.9847 33.7482L60.0008 30.7644L57.0171 33.7481L57.0168 33.7481L57.0168 50.1592Z" fill="#E2FDFF"/>
<path d="M60.0006 53.1431L59.6276 53.516L60.0006 53.889L60.3736 53.516L60.0006 53.1431ZM57.0168 50.1592L56.4893 50.1592L56.4893 50.3777L56.6438 50.5322L57.0168 50.1592ZM62.9844 50.1592L63.3574 50.5322L63.5119 50.3777L63.5119 50.1592L62.9844 50.1592ZM62.9844 33.7484L62.6115 33.3755L62.457 33.5299L62.457 33.7484L62.9844 33.7484ZM62.9847 33.7482L63.3576 34.1212L63.7306 33.7482L63.3576 33.3752L62.9847 33.7482ZM60.0008 30.7644L60.3738 30.3914L60.0008 30.0184L59.6278 30.3914L60.0008 30.7644ZM57.0171 33.7481L57.0171 34.2756L57.2356 34.2756L57.39 34.1211L57.0171 33.7481ZM57.0168 33.7481L57.0168 33.2207L56.4893 33.2207L56.4893 33.7481L57.0168 33.7481ZM60.3736 52.7701L57.3898 49.7863L56.6438 50.5322L59.6276 53.516L60.3736 52.7701ZM62.6115 49.7863L59.6276 52.7701L60.3736 53.516L63.3574 50.5322L62.6115 49.7863ZM62.457 33.7484L62.457 50.1592L63.5119 50.1592L63.5119 33.7484L62.457 33.7484ZM62.6117 33.3752L62.6115 33.3755L63.3574 34.1214L63.3576 34.1212L62.6117 33.3752ZM59.6278 31.1374L62.6117 34.1212L63.3576 33.3752L60.3738 30.3914L59.6278 31.1374ZM57.39 34.1211L60.3738 31.1374L59.6278 30.3914L56.6441 33.3752L57.39 34.1211ZM57.0168 34.2756L57.0171 34.2756L57.0171 33.2207L57.0168 33.2207L57.0168 34.2756ZM57.5442 50.1592L57.5442 33.7481L56.4893 33.7481L56.4893 50.1592L57.5442 50.1592Z" fill="#E2FDFF" mask="url(#path-1-inside-1_537_854)"/>
<mask id="path-3-inside-2_537_854" fill="white">
<path fill-rule="evenodd" clip-rule="evenodd" d="M37.2487 53.5159L34.2649 56.4998L37.2487 59.4836L53.6597 59.4836L53.66 59.4839L56.6438 56.5L53.66 53.5162L53.6598 53.5164V53.5159L37.2487 53.5159Z"/>
</mask>
<path fill-rule="evenodd" clip-rule="evenodd" d="M37.2487 53.5159L34.2649 56.4998L37.2487 59.4836L53.6597 59.4836L53.66 59.4839L56.6438 56.5L53.66 53.5162L53.6598 53.5164V53.5159L37.2487 53.5159Z" fill="#E2FDFF"/>
<path d="M34.2649 56.4998L33.8919 56.1268L33.5189 56.4998L33.8919 56.8727L34.2649 56.4998ZM37.2487 53.5159L37.2487 52.9884L37.0302 52.9884L36.8757 53.1429L37.2487 53.5159ZM37.2487 59.4836L36.8757 59.8566L37.0302 60.0111L37.2487 60.0111L37.2487 59.4836ZM53.6597 59.4836L54.0327 59.1106L53.8782 58.9561L53.6597 58.9561L53.6597 59.4836ZM53.66 59.4839L53.287 59.8569L53.66 60.2298L54.033 59.8569L53.66 59.4839ZM56.6438 56.5L57.0168 56.873L57.3898 56.5L57.0168 56.1271L56.6438 56.5ZM53.66 53.5162L54.033 53.1432L53.66 52.7702L53.287 53.1432L53.66 53.5162ZM53.6598 53.5164H53.1323V54.7898L54.0328 53.8893L53.6598 53.5164ZM53.6598 53.5159H54.1873L54.1873 52.9884L53.6598 52.9884L53.6598 53.5159ZM34.6379 56.8727L37.6217 53.8889L36.8757 53.1429L33.8919 56.1268L34.6379 56.8727ZM37.6217 59.1106L34.6379 56.1268L33.8919 56.8727L36.8757 59.8566L37.6217 59.1106ZM53.6597 58.9561L37.2487 58.9561L37.2487 60.0111L53.6597 60.0111L53.6597 58.9561ZM54.033 59.1109L54.0327 59.1106L53.2867 59.8566L53.287 59.8569L54.033 59.1109ZM56.2708 56.1271L53.287 59.1109L54.033 59.8569L57.0168 56.873L56.2708 56.1271ZM53.287 53.8892L56.2708 56.873L57.0168 56.1271L54.033 53.1432L53.287 53.8892ZM54.0328 53.8893L54.033 53.8892L53.287 53.1432L53.2868 53.1434L54.0328 53.8893ZM53.1323 53.5159V53.5164H54.1873V53.5159H53.1323ZM37.2487 54.0434L53.6598 54.0434L53.6598 52.9884L37.2487 52.9884L37.2487 54.0434Z" fill="#E2FDFF" mask="url(#path-3-inside-2_537_854)"/>
<mask id="path-5-inside-3_537_854" fill="white">
<path fill-rule="evenodd" clip-rule="evenodd" d="M66.3413 53.5159L63.3574 56.4998L66.3413 59.4836L82.7524 59.4836V59.4835L82.7526 59.4837L85.7364 56.4999L82.7526 53.516L82.7524 53.5163V53.5159L66.3413 53.5159Z"/>
</mask>
<path fill-rule="evenodd" clip-rule="evenodd" d="M66.3413 53.5159L63.3574 56.4998L66.3413 59.4836L82.7524 59.4836V59.4835L82.7526 59.4837L85.7364 56.4999L82.7526 53.516L82.7524 53.5163V53.5159L66.3413 53.5159Z" fill="#E2FDFF"/>
<path d="M63.3574 56.4998L62.9844 56.1268L62.6115 56.4998L62.9844 56.8727L63.3574 56.4998ZM66.3413 53.5159L66.3413 52.9884L66.1228 52.9884L65.9683 53.1429L66.3413 53.5159ZM66.3413 59.4836L65.9683 59.8566L66.1228 60.0111L66.3413 60.0111L66.3413 59.4836ZM82.7524 59.4836L82.7524 60.0111L83.2798 60.0111V59.4836H82.7524ZM82.7524 59.4835L83.1253 59.1105L82.2249 58.21V59.4835H82.7524ZM82.7526 59.4837L82.3796 59.8567L82.7526 60.2297L83.1256 59.8567L82.7526 59.4837ZM85.7364 56.4999L86.1094 56.8728L86.4824 56.4999L86.1094 56.1269L85.7364 56.4999ZM82.7526 53.516L83.1256 53.143L82.7526 52.7701L82.3796 53.143L82.7526 53.516ZM82.7524 53.5163H82.2249V54.7897L83.1253 53.8892L82.7524 53.5163ZM82.7524 53.5159H83.2798V52.9884L82.7524 52.9884L82.7524 53.5159ZM63.7304 56.8727L66.7142 53.8889L65.9683 53.1429L62.9844 56.1268L63.7304 56.8727ZM66.7142 59.1106L63.7304 56.1268L62.9844 56.8727L65.9683 59.8566L66.7142 59.1106ZM82.7524 58.9561L66.3413 58.9561L66.3413 60.0111L82.7524 60.0111L82.7524 58.9561ZM82.2249 59.4835V59.4836H83.2798V59.4835H82.2249ZM83.1256 59.1107L83.1253 59.1105L82.3794 59.8564L82.3796 59.8567L83.1256 59.1107ZM85.3634 56.1269L82.3796 59.1107L83.1256 59.8567L86.1094 56.8728L85.3634 56.1269ZM82.3796 53.889L85.3634 56.8728L86.1094 56.1269L83.1256 53.143L82.3796 53.889ZM83.1253 53.8892L83.1256 53.889L82.3796 53.143L82.3794 53.1433L83.1253 53.8892ZM82.2249 53.5159V53.5163H83.2798V53.5159H82.2249ZM66.3413 54.0434L82.7524 54.0434L82.7524 52.9884L66.3413 52.9884L66.3413 54.0434Z" fill="#E2FDFF" mask="url(#path-5-inside-3_537_854)"/>
<mask id="path-7-inside-4_537_854" fill="white">
<path fill-rule="evenodd" clip-rule="evenodd" d="M57.0168 79.2518L60.0006 82.2356L62.9844 79.2518L62.9844 62.8409L62.9845 62.8408L62.9844 62.8408L62.9844 62.8407L62.9843 62.8407L60.0006 59.857L57.017 62.8407L57.0168 62.8407L57.0168 79.2518Z"/>
</mask>
<path fill-rule="evenodd" clip-rule="evenodd" d="M57.0168 79.2518L60.0006 82.2356L62.9844 79.2518L62.9844 62.8409L62.9845 62.8408L62.9844 62.8408L62.9844 62.8407L62.9843 62.8407L60.0006 59.857L57.017 62.8407L57.0168 62.8407L57.0168 79.2518Z" fill="#E2FDFF"/>
<path d="M60.0006 82.2356L59.6276 82.6086L60.0006 82.9816L60.3736 82.6086L60.0006 82.2356ZM57.0168 79.2518L56.4893 79.2518L56.4893 79.4702L56.6438 79.6247L57.0168 79.2518ZM62.9844 79.2518L63.3574 79.6247L63.5119 79.4702L63.5119 79.2518L62.9844 79.2518ZM62.9844 62.8409L62.6115 62.4679L62.457 62.6224L62.457 62.8409L62.9844 62.8409ZM62.9845 62.8408L63.3575 63.2138L63.7304 62.8408L63.3575 62.4679L62.9845 62.8408ZM62.9844 62.8408L62.457 62.8408L62.457 63.0593L62.6115 63.2138L62.9844 62.8408ZM62.9844 62.8407L63.5119 62.8407L63.5119 62.3132L62.9844 62.3132L62.9844 62.8407ZM62.9843 62.8407L62.6113 63.2136L62.7658 63.3681L62.9843 63.3681L62.9843 62.8407ZM60.0006 59.857L60.3736 59.484L60.0006 59.111L59.6277 59.484L60.0006 59.857ZM57.017 62.8407L57.017 63.3681L57.2355 63.3681L57.39 63.2136L57.017 62.8407ZM57.0168 62.8407L57.0168 62.3132L56.4893 62.3132L56.4893 62.8407L57.0168 62.8407ZM60.3736 81.8626L57.3898 78.8788L56.6438 79.6247L59.6276 82.6086L60.3736 81.8626ZM62.6115 78.8788L59.6276 81.8626L60.3736 82.6086L63.3574 79.6247L62.6115 78.8788ZM62.457 62.8409L62.457 79.2518L63.5119 79.2518L63.5119 62.8409L62.457 62.8409ZM62.6115 62.4679L62.6115 62.4679L63.3574 63.2138L63.3575 63.2138L62.6115 62.4679ZM62.6115 63.2138L62.6115 63.2138L63.3575 62.4679L63.3574 62.4678L62.6115 63.2138ZM62.457 62.8407L62.457 62.8408L63.5119 62.8408L63.5119 62.8407L62.457 62.8407ZM62.9843 63.3681L62.9844 63.3681L62.9844 62.3132L62.9843 62.3132L62.9843 63.3681ZM59.6277 60.23L62.6113 63.2136L63.3573 62.4677L60.3736 59.484L59.6277 60.23ZM57.39 63.2136L60.3736 60.23L59.6277 59.484L56.644 62.4677L57.39 63.2136ZM57.0168 63.3681L57.017 63.3681L57.017 62.3132L57.0168 62.3132L57.0168 63.3681ZM57.5442 79.2518L57.5442 62.8407L56.4893 62.8407L56.4893 79.2518L57.5442 79.2518Z" fill="#E2FDFF" mask="url(#path-7-inside-4_537_854)"/>
<rect x="44.9011" y="40.9011" width="31.1978" height="31.1978" stroke="#E2FDFF" stroke-width="5.8022"/>
</g>
<defs>
<filter id="filter0_d_537_854" x="0.264893" y="0.764404" width="119.472" height="119.471" filterUnits="userSpaceOnUse" color-interpolation-filters="sRGB">
<feFlood flood-opacity="0" result="BackgroundImageFix"/>
<feColorMatrix in="SourceAlpha" type="matrix" values="0 0 0 0 0 0 0 0 0 0 0 0 0 0 0 0 0 0 127 0" result="hardAlpha"/>
<feOffset dy="4"/>
<feGaussianBlur stdDeviation="17"/>
<feColorMatrix type="matrix" values="0 0 0 0 0.885531 0 0 0 0 0.993132 0 0 0 0 1 0 0 0 0.6 0"/>
<feBlend mode="normal" in2="BackgroundImageFix" result="effect1_dropShadow_537_854"/>
<feBlend mode="normal" in="SourceGraphic" in2="effect1_dropShadow_537_854" result="shape"/>
</filter>
</defs>
</svg>
