<svg width="117" height="112" viewBox="0 0 117 112" fill="none" xmlns="http://www.w3.org/2000/svg">
    <g filter="url(#filter0_d_520_1302)">
        <mask id="path-1-inside-1_520_1302" fill="white">
            <path
                d="M61.6123 49.1812L61.6123 44.1702L75.3925 30.3899L80.4035 35.4009L66.6233 49.1812L61.6123 49.1812Z" />
        </mask>
        <path
            d="M61.6123 49.1812L61.6123 44.1702L75.3925 30.3899L80.4035 35.4009L66.6233 49.1812L61.6123 49.1812Z"
            fill="#E2FDFF" />
        <path
            d="M61.6123 49.1812L60.9859 49.1812L60.9859 49.8075L61.6123 49.8075L61.6123 49.1812ZM61.6123 44.1702L61.1694 43.7273L60.9859 43.9107L60.9859 44.1702L61.6123 44.1702ZM80.4035 35.4009L80.8464 35.8438L81.2893 35.4009L80.8464 34.958L80.4035 35.4009ZM66.6233 49.1812L66.6233 49.8075L66.8827 49.8075L67.0662 49.6241L66.6233 49.1812ZM75.3925 30.3899L75.8354 29.947L75.3925 29.5041L74.9496 29.947L75.3925 30.3899ZM62.2387 49.1812L62.2387 44.1702L60.9859 44.1702L60.9859 49.1812L62.2387 49.1812ZM79.9606 34.958L66.1804 48.7382L67.0662 49.6241L80.8464 35.8438L79.9606 34.958ZM66.6233 48.5548L61.6123 48.5548L61.6123 49.8075L66.6233 49.8075L66.6233 48.5548ZM62.0552 44.6131L75.8354 30.8329L74.9496 29.947L61.1694 43.7273L62.0552 44.6131ZM74.9496 30.8329L79.9606 35.8438L80.8464 34.958L75.8354 29.947L74.9496 30.8329Z"
            fill="#E2FDFF" mask="url(#path-1-inside-1_520_1302)" />
        <mask id="path-3-inside-2_520_1302" fill="white">
            <path
                d="M55.9746 49.1812L50.9636 49.1812L37.1834 35.4009L42.1944 30.3899L55.9746 44.1702L55.9746 49.1812Z" />
        </mask>
        <path
            d="M55.9746 49.1812L50.9636 49.1812L37.1834 35.4009L42.1944 30.3899L55.9746 44.1702L55.9746 49.1812Z"
            fill="#E2FDFF" />
        <path
            d="M55.9746 49.1812L55.9746 49.8075L56.601 49.8075L56.601 49.1812L55.9746 49.1812ZM50.9636 49.1812L50.5207 49.6241L50.7042 49.8075L50.9636 49.8075L50.9636 49.1812ZM42.1944 30.3899L42.6373 29.947L42.1944 29.5041L41.7515 29.947L42.1944 30.3899ZM55.9746 44.1702L56.601 44.1702L56.601 43.9107L56.4175 43.7273L55.9746 44.1702ZM37.1834 35.4009L36.7405 34.958L36.2976 35.4009L36.7405 35.8438L37.1834 35.4009ZM55.9746 48.5548L50.9636 48.5548L50.9636 49.8075L55.9746 49.8075L55.9746 48.5548ZM41.7515 30.8329L55.5317 44.6131L56.4175 43.7273L42.6373 29.947L41.7515 30.8329ZM55.3482 44.1702L55.3482 49.1812L56.601 49.1812L56.601 44.1702L55.3482 44.1702ZM51.4065 48.7382L37.6263 34.958L36.7405 35.8438L50.5207 49.6241L51.4065 48.7382ZM37.6263 35.8438L42.6373 30.8329L41.7515 29.947L36.7405 34.958L37.6263 35.8438Z"
            fill="#E2FDFF" mask="url(#path-3-inside-2_520_1302)" />
        <mask id="path-5-inside-3_520_1302" fill="white">
            <path
                d="M61.6123 54.8186H66.6233L80.4035 68.5988L75.3925 73.6098L61.6123 59.8296V54.8186Z" />
        </mask>
        <path d="M61.6123 54.8186H66.6233L80.4035 68.5988L75.3925 73.6098L61.6123 59.8296V54.8186Z"
            fill="#E2FDFF" />
        <path
            d="M61.6123 54.8186V54.1922H60.9859V54.8186H61.6123ZM66.6233 54.8186L67.0662 54.3757L66.8827 54.1922H66.6233V54.8186ZM75.3925 73.6098L74.9496 74.0527L75.3925 74.4956L75.8354 74.0527L75.3925 73.6098ZM61.6123 59.8296H60.9859V60.089L61.1694 60.2725L61.6123 59.8296ZM80.4035 68.5988L80.8464 69.0417L81.2893 68.5988L80.8464 68.1559L80.4035 68.5988ZM61.6123 55.445H66.6233V54.1922H61.6123V55.445ZM75.8354 73.1669L62.0552 59.3867L61.1694 60.2725L74.9496 74.0527L75.8354 73.1669ZM62.2387 59.8296V54.8186H60.9859V59.8296H62.2387ZM66.1804 55.2615L79.9606 69.0417L80.8464 68.1559L67.0662 54.3757L66.1804 55.2615ZM79.9606 68.1559L74.9496 73.1669L75.8354 74.0527L80.8464 69.0417L79.9606 68.1559Z"
            fill="#E2FDFF" mask="url(#path-5-inside-3_520_1302)" />
        <mask id="path-7-inside-4_520_1302" fill="white">
            <path
                d="M55.9731 54.8187L55.9731 59.8296L42.1929 73.6099L39.6874 71.1044L37.1819 68.5989L50.9621 54.8187L55.9731 54.8187Z" />
        </mask>
        <path
            d="M55.9731 54.8187L55.9731 59.8296L42.1929 73.6099L39.6874 71.1044L37.1819 68.5989L50.9621 54.8187L55.9731 54.8187Z"
            fill="#E2FDFF" />
        <path
            d="M55.9731 54.8187L56.5995 54.8187L56.5995 54.1923L55.9731 54.1923L55.9731 54.8187ZM55.9731 59.8296L56.416 60.2726L56.5995 60.0891L56.5995 59.8296L55.9731 59.8296ZM37.1819 68.5989L36.739 68.156L36.2961 68.5989L36.739 69.0418L37.1819 68.5989ZM50.9621 54.8187L50.9621 54.1923L50.7027 54.1923L50.5192 54.3757L50.9621 54.8187ZM42.1929 73.6099L41.75 74.0528L42.1929 74.4957L42.6358 74.0528L42.1929 73.6099ZM55.3467 54.8187L55.3467 59.8296L56.5995 59.8296L56.5995 54.8187L55.3467 54.8187ZM37.6248 69.0418L51.405 55.2616L50.5192 54.3757L36.739 68.156L37.6248 69.0418ZM50.9621 55.445L55.9731 55.445L55.9731 54.1923L50.9621 54.1923L50.9621 55.445ZM55.5302 59.3867L41.75 73.1669L42.6358 74.0528L56.416 60.2726L55.5302 59.3867ZM42.6358 73.167L40.1303 70.6615L39.2445 71.5473L41.75 74.0528L42.6358 73.167ZM40.1303 70.6615L37.6248 68.156L36.739 69.0418L39.2445 71.5473L40.1303 70.6615Z"
            fill="#E2FDFF" mask="url(#path-7-inside-4_520_1302)" />
        <rect x="76.646" y="49.1812" width="6.26374" height="6.26374" fill="#E2FDFF" />
        <rect x="34.678" y="49.1812" width="6.26374" height="6.26374" fill="#E2FDFF" />
    </g>
    <defs>
        <filter id="filter0_d_520_1302" x="-3.70605" y="-6.5" width="125" height="125"
            filterUnits="userSpaceOnUse" color-interpolation-filters="sRGB">
            <feFlood flood-opacity="0" result="BackgroundImageFix" />
            <feColorMatrix in="SourceAlpha" type="matrix"
                values="0 0 0 0 0 0 0 0 0 0 0 0 0 0 0 0 0 0 127 0" result="hardAlpha" />
            <feOffset dy="4" />
            <feGaussianBlur stdDeviation="17" />
            <feComposite in2="hardAlpha" operator="out" />
            <feColorMatrix type="matrix"
                values="0 0 0 0 0.885531 0 0 0 0 0.993132 0 0 0 0 1 0 0 0 0.6 0" />
            <feBlend mode="normal" in2="BackgroundImageFix" result="effect1_dropShadow_520_1302" />
            <feBlend mode="normal" in="SourceGraphic" in2="effect1_dropShadow_520_1302"
                result="shape" />
        </filter>
    </defs>
</svg>