<svg width="117" height="113" viewBox="0 0 117 113" fill="none" xmlns="http://www.w3.org/2000/svg">
<g filter="url(#filter0_d_535_750)">
<mask id="path-1-inside-1_535_750" fill="white">
<path d="M61.3183 49.6812L61.3183 44.6702L75.0985 30.8899L80.1095 35.9009L66.3293 49.6812L61.3183 49.6812Z"/>
</mask>
<path d="M61.3183 49.6812L61.3183 44.6702L75.0985 30.8899L80.1095 35.9009L66.3293 49.6812L61.3183 49.6812Z" fill="#E2FDFF"/>
<path d="M61.3183 49.6812L60.6919 49.6812L60.6919 50.3075L61.3183 50.3075L61.3183 49.6812ZM61.3183 44.6702L60.8754 44.2273L60.6919 44.4107L60.6919 44.6702L61.3183 44.6702ZM80.1095 35.9009L80.5524 36.3438L80.9953 35.9009L80.5524 35.458L80.1095 35.9009ZM66.3293 49.6812L66.3293 50.3075L66.5887 50.3075L66.7722 50.1241L66.3293 49.6812ZM75.0985 30.8899L75.5414 30.447L75.0985 30.0041L74.6556 30.447L75.0985 30.8899ZM61.9447 49.6812L61.9447 44.6702L60.6919 44.6702L60.6919 49.6812L61.9447 49.6812ZM79.6666 35.458L65.8864 49.2382L66.7722 50.1241L80.5524 36.3438L79.6666 35.458ZM66.3293 49.0548L61.3183 49.0548L61.3183 50.3075L66.3293 50.3075L66.3293 49.0548ZM61.7612 45.1131L75.5414 31.3329L74.6556 30.447L60.8754 44.2273L61.7612 45.1131ZM74.6556 31.3329L79.6666 36.3438L80.5524 35.458L75.5414 30.447L74.6556 31.3329Z" fill="#E2FDFF" mask="url(#path-1-inside-1_535_750)"/>
<mask id="path-3-inside-2_535_750" fill="white">
<path d="M55.6808 49.6812L50.6698 49.6812L36.8895 35.9009L41.9005 30.8899L55.6808 44.6702L55.6808 49.6812Z"/>
</mask>
<path d="M55.6808 49.6812L50.6698 49.6812L36.8895 35.9009L41.9005 30.8899L55.6808 44.6702L55.6808 49.6812Z" fill="#E2FDFF"/>
<path d="M55.6808 49.6812L55.6808 50.3075L56.3071 50.3075L56.3071 49.6812L55.6808 49.6812ZM50.6698 49.6812L50.2269 50.1241L50.4103 50.3075L50.6698 50.3075L50.6698 49.6812ZM41.9005 30.8899L42.3434 30.447L41.9005 30.0041L41.4576 30.447L41.9005 30.8899ZM55.6808 44.6702L56.3071 44.6702L56.3071 44.4107L56.1237 44.2273L55.6808 44.6702ZM36.8895 35.9009L36.4466 35.458L36.0037 35.9009L36.4466 36.3438L36.8895 35.9009ZM55.6808 49.0548L50.6698 49.0548L50.6698 50.3075L55.6808 50.3075L55.6808 49.0548ZM41.4576 31.3329L55.2378 45.1131L56.1237 44.2273L42.3434 30.447L41.4576 31.3329ZM55.0544 44.6702L55.0544 49.6812L56.3071 49.6812L56.3071 44.6702L55.0544 44.6702ZM51.1127 49.2382L37.3325 35.458L36.4466 36.3438L50.2269 50.1241L51.1127 49.2382ZM37.3325 36.3438L42.3434 31.3329L41.4576 30.447L36.4466 35.458L37.3325 36.3438Z" fill="#E2FDFF" mask="url(#path-3-inside-2_535_750)"/>
<mask id="path-5-inside-3_535_750" fill="white">
<path d="M61.3183 55.3186H66.3293L80.1095 69.0988L75.0985 74.1098L61.3183 60.3296V55.3186Z"/>
</mask>
<path d="M61.3183 55.3186H66.3293L80.1095 69.0988L75.0985 74.1098L61.3183 60.3296V55.3186Z" fill="#E2FDFF"/>
<path d="M61.3183 55.3186V54.6922H60.6919V55.3186H61.3183ZM66.3293 55.3186L66.7722 54.8757L66.5887 54.6922H66.3293V55.3186ZM75.0985 74.1098L74.6556 74.5527L75.0985 74.9956L75.5414 74.5527L75.0985 74.1098ZM61.3183 60.3296H60.6919V60.589L60.8754 60.7725L61.3183 60.3296ZM80.1095 69.0988L80.5524 69.5417L80.9953 69.0988L80.5524 68.6559L80.1095 69.0988ZM61.3183 55.945H66.3293V54.6922H61.3183V55.945ZM75.5414 73.6669L61.7612 59.8867L60.8754 60.7725L74.6556 74.5527L75.5414 73.6669ZM61.9447 60.3296V55.3186H60.6919V60.3296H61.9447ZM65.8864 55.7615L79.6666 69.5417L80.5524 68.6559L66.7722 54.8757L65.8864 55.7615ZM79.6666 68.6559L74.6556 73.6669L75.5414 74.5527L80.5524 69.5417L79.6666 68.6559Z" fill="#E2FDFF" mask="url(#path-5-inside-3_535_750)"/>
<mask id="path-7-inside-4_535_750" fill="white">
<path d="M55.6792 55.3187L55.6792 60.3296L41.899 74.1099L39.3935 71.6044L36.888 69.0989L50.6682 55.3187L55.6792 55.3187Z"/>
</mask>
<path d="M55.6792 55.3187L55.6792 60.3296L41.899 74.1099L39.3935 71.6044L36.888 69.0989L50.6682 55.3187L55.6792 55.3187Z" fill="#E2FDFF"/>
<path d="M55.6792 55.3187L56.3056 55.3187L56.3056 54.6923L55.6792 54.6923L55.6792 55.3187ZM55.6792 60.3296L56.1221 60.7726L56.3056 60.5891L56.3056 60.3296L55.6792 60.3296ZM36.888 69.0989L36.4451 68.656L36.0021 69.0989L36.4451 69.5418L36.888 69.0989ZM50.6682 55.3187L50.6682 54.6923L50.4087 54.6923L50.2253 54.8757L50.6682 55.3187ZM41.899 74.1099L41.456 74.5528L41.899 74.9957L42.3419 74.5528L41.899 74.1099ZM55.0528 55.3187L55.0528 60.3296L56.3056 60.3296L56.3056 55.3187L55.0528 55.3187ZM37.3309 69.5418L51.1111 55.7616L50.2253 54.8757L36.4451 68.656L37.3309 69.5418ZM50.6682 55.945L55.6792 55.945L55.6792 54.6923L50.6682 54.6923L50.6682 55.945ZM55.2363 59.8867L41.456 73.6669L42.3419 74.5528L56.1221 60.7726L55.2363 59.8867ZM42.3419 73.667L39.8364 71.1615L38.9506 72.0473L41.456 74.5528L42.3419 73.667ZM39.8364 71.1615L37.3309 68.656L36.4451 69.5418L38.9506 72.0473L39.8364 71.1615Z" fill="#E2FDFF" mask="url(#path-7-inside-4_535_750)"/>
<rect x="76.3521" y="49.6812" width="6.26374" height="6.26374" fill="#E2FDFF"/>
<rect x="34.3841" y="49.6812" width="6.26374" height="6.26374" fill="#E2FDFF"/>
</g>
<defs>
<filter id="filter0_d_535_750" x="-4" y="-6" width="125" height="125" filterUnits="userSpaceOnUse" color-interpolation-filters="sRGB">
<feFlood flood-opacity="0" result="BackgroundImageFix"/>
<feColorMatrix in="SourceAlpha" type="matrix" values="0 0 0 0 0 0 0 0 0 0 0 0 0 0 0 0 0 0 127 0" result="hardAlpha"/>
<feOffset dy="4"/>
<feGaussianBlur stdDeviation="17"/>
<feComposite in2="hardAlpha" operator="out"/>
<feColorMatrix type="matrix" values="0 0 0 0 0.885531 0 0 0 0 0.993132 0 0 0 0 1 0 0 0 0.6 0"/>
<feBlend mode="normal" in2="BackgroundImageFix" result="effect1_dropShadow_535_750"/>
<feBlend mode="normal" in="SourceGraphic" in2="effect1_dropShadow_535_750" result="shape"/>
</filter>
</defs>
</svg>
