<svg width="123" height="123" viewBox="0 0 123 123" fill="none" xmlns="http://www.w3.org/2000/svg">
<g filter="url(#filter0_d_536_762)">
<mask id="path-1-inside-1_536_762" fill="white">
<path d="M65.486 57.4998L69.0293 53.9565L88.5174 53.9565V61.0431L69.0293 61.0431L65.486 57.4998Z"/>
</mask>
<path d="M65.486 57.4998L69.0293 53.9565L88.5174 53.9565V61.0431L69.0293 61.0431L65.486 57.4998Z" fill="#E2FDFF"/>
<path d="M65.486 57.4998L65.043 57.0568L64.6001 57.4998L65.043 57.9427L65.486 57.4998ZM69.0293 53.9565V53.3301L68.7698 53.3301L68.5864 53.5135L69.0293 53.9565ZM88.5174 61.0431V61.6694H89.1438V61.0431H88.5174ZM69.0293 61.0431L68.5864 61.486L68.7698 61.6694L69.0293 61.6694V61.0431ZM88.5174 53.9565H89.1438V53.3301H88.5174V53.9565ZM65.9289 57.9427L69.4722 54.3994L68.5864 53.5135L65.043 57.0568L65.9289 57.9427ZM88.5174 60.4167L69.0293 60.4167V61.6694L88.5174 61.6694V60.4167ZM69.4722 60.6001L65.9289 57.0568L65.043 57.9427L68.5864 61.486L69.4722 60.6001ZM69.0293 54.5828L88.5174 54.5828V53.3301L69.0293 53.3301V54.5828ZM87.8911 53.9565V61.0431H89.1438V53.9565H87.8911Z" fill="#E2FDFF" mask="url(#path-1-inside-1_536_762)"/>
<mask id="path-3-inside-2_536_762" fill="white">
<path d="M61.4996 53.5134L57.9563 49.9701L57.9563 30.482L65.0429 30.482L65.0429 49.9701L61.4996 53.5134Z"/>
</mask>
<path d="M61.4996 53.5134L57.9563 49.9701L57.9563 30.482L65.0429 30.482L65.0429 49.9701L61.4996 53.5134Z" fill="#E2FDFF"/>
<path d="M61.4996 53.5134L61.0567 53.9563L61.4996 54.3993L61.9425 53.9563L61.4996 53.5134ZM57.9563 49.9701L57.33 49.9701L57.33 50.2296L57.5134 50.413L57.9563 49.9701ZM65.0429 30.482L65.6693 30.482L65.6693 29.8556L65.0429 29.8556L65.0429 30.482ZM65.0429 49.9701L65.4859 50.413L65.6693 50.2296L65.6693 49.9701L65.0429 49.9701ZM57.9563 30.482L57.9563 29.8556L57.33 29.8556L57.33 30.482L57.9563 30.482ZM61.9425 53.0705L58.3992 49.5272L57.5134 50.413L61.0567 53.9563L61.9425 53.0705ZM64.4166 30.482L64.4166 49.9701L65.6693 49.9701L65.6693 30.482L64.4166 30.482ZM64.6 49.5272L61.0567 53.0705L61.9425 53.9563L65.4859 50.413L64.6 49.5272ZM58.5827 49.9701L58.5827 30.482L57.33 30.482L57.33 49.9701L58.5827 49.9701ZM57.9563 31.1083L65.0429 31.1083L65.0429 29.8556L57.9563 29.8556L57.9563 31.1083Z" fill="#E2FDFF" mask="url(#path-3-inside-2_536_762)"/>
<mask id="path-5-inside-3_536_762" fill="white">
<path d="M61.4997 61.4858L65.043 65.0291L65.043 84.5173H57.9564L57.9564 65.0291L61.4997 61.4858Z"/>
</mask>
<path d="M61.4997 61.4858L65.043 65.0291L65.043 84.5173H57.9564L57.9564 65.0291L61.4997 61.4858Z" fill="#E2FDFF"/>
<path d="M61.4997 61.4858L61.9426 61.0429L61.4997 60.6L61.0568 61.0429L61.4997 61.4858ZM65.043 65.0291H65.6694L65.6694 64.7697L65.4859 64.5862L65.043 65.0291ZM57.9564 84.5173H57.33V85.1437H57.9564V84.5173ZM57.9564 65.0291L57.5135 64.5862L57.33 64.7697L57.33 65.0291H57.9564ZM65.043 84.5173V85.1437H65.6694V84.5173H65.043ZM61.0568 61.9288L64.6001 65.4721L65.4859 64.5862L61.9426 61.0429L61.0568 61.9288ZM58.5828 84.5173L58.5828 65.0291H57.33L57.33 84.5173H58.5828ZM58.3993 65.4721L61.9426 61.9288L61.0568 61.0429L57.5135 64.5862L58.3993 65.4721ZM64.4166 65.0291L64.4166 84.5173H65.6694L65.6694 65.0291H64.4166ZM65.043 83.8909H57.9564V85.1437H65.043V83.8909Z" fill="#E2FDFF" mask="url(#path-5-inside-3_536_762)"/>
<mask id="path-7-inside-4_536_762" fill="white">
<path d="M57.5122 57.4985L53.9689 61.0418L34.4807 61.0418L34.4807 57.4985L34.4807 53.9552L53.9689 53.9552L57.5122 57.4985Z"/>
</mask>
<path d="M57.5122 57.4985L53.9689 61.0418L34.4807 61.0418L34.4807 57.4985L34.4807 53.9552L53.9689 53.9552L57.5122 57.4985Z" fill="#E2FDFF"/>
<path d="M57.5122 57.4985L57.9551 57.9415L58.398 57.4985L57.9551 57.0556L57.5122 57.4985ZM53.9689 61.0418V61.6682H54.2284L54.4118 61.4848L53.9689 61.0418ZM34.4807 53.9552L34.4807 53.3289L33.8544 53.3289L33.8544 53.9552L34.4807 53.9552ZM53.9689 53.9552L54.4118 53.5123L54.2284 53.3289L53.9689 53.3289V53.9552ZM34.4807 61.0418L33.8544 61.0418L33.8544 61.6682L34.4807 61.6682L34.4807 61.0418ZM57.0693 57.0556L53.526 60.5989L54.4118 61.4848L57.9551 57.9415L57.0693 57.0556ZM34.4807 54.5816L53.9689 54.5816V53.3289L34.4807 53.3289L34.4807 54.5816ZM53.526 54.3981L57.0693 57.9414L57.9551 57.0556L54.4118 53.5123L53.526 54.3981ZM53.9689 60.4155L34.4807 60.4155L34.4807 61.6682L53.9689 61.6682V60.4155ZM35.1071 61.0418L35.1071 57.4985H33.8544L33.8544 61.0418L35.1071 61.0418ZM35.1071 57.4985L35.1071 53.9552L33.8544 53.9552L33.8544 57.4985H35.1071Z" fill="#E2FDFF" mask="url(#path-7-inside-4_536_762)"/>
<rect x="76.1165" y="68.1301" width="6.26374" height="6.26374" transform="rotate(45 76.1165 68.1301)" fill="#E2FDFF"/>
<rect x="46.4406" y="38.4543" width="6.26374" height="6.26374" transform="rotate(45 46.4406 38.4543)" fill="#E2FDFF"/>
</g>
<defs>
<filter id="filter0_d_536_762" x="-1" y="-1" width="125" height="125" filterUnits="userSpaceOnUse" color-interpolation-filters="sRGB">
<feFlood flood-opacity="0" result="BackgroundImageFix"/>
<feColorMatrix in="SourceAlpha" type="matrix" values="0 0 0 0 0 0 0 0 0 0 0 0 0 0 0 0 0 0 127 0" result="hardAlpha"/>
<feOffset dy="4"/>
<feGaussianBlur stdDeviation="17"/>
<feComposite in2="hardAlpha" operator="out"/>
<feColorMatrix type="matrix" values="0 0 0 0 0.885531 0 0 0 0 0.993132 0 0 0 0 1 0 0 0 0.6 0"/>
<feBlend mode="normal" in2="BackgroundImageFix" result="effect1_dropShadow_536_762"/>
<feBlend mode="normal" in="SourceGraphic" in2="effect1_dropShadow_536_762" result="shape"/>
</filter>
</defs>
</svg>
