<svg width="116" height="117" viewBox="0 0 116 117" fill="none" xmlns="http://www.w3.org/2000/svg">
<g filter="url(#filter0_d_535_761)">
<mask id="path-1-inside-1_535_761" fill="white">
<path fill-rule="evenodd" clip-rule="evenodd" d="M60.3743 47.9064L60.3743 52.1262L64.594 52.1262L76.1982 40.522L76.1985 40.522L76.1985 36.3023L71.9789 36.3023L71.9787 36.302L60.3743 47.9064Z"/>
</mask>
<path fill-rule="evenodd" clip-rule="evenodd" d="M60.3743 47.9064L60.3743 52.1262L64.594 52.1262L76.1982 40.522L76.1985 40.522L76.1985 36.3023L71.9789 36.3023L71.9787 36.302L60.3743 47.9064Z" fill="#E2FDFF"/>
<path d="M60.3743 52.1262L59.8468 52.1262L59.8468 52.6537L60.3743 52.6537L60.3743 52.1262ZM60.3743 47.9064L60.0013 47.5335L59.8468 47.688L59.8468 47.9064L60.3743 47.9064ZM64.594 52.1262L64.594 52.6537L64.8125 52.6537L64.967 52.4992L64.594 52.1262ZM76.1982 40.522L76.1982 39.9946L75.9798 39.9946L75.8253 40.1491L76.1982 40.522ZM76.1985 40.522L76.1985 41.0495L76.726 41.0495L76.726 40.522L76.1985 40.522ZM76.1985 36.3023L76.726 36.3023L76.726 35.7748L76.1985 35.7748L76.1985 36.3023ZM71.9789 36.3023L71.6059 36.6752L71.7604 36.8297L71.9789 36.8297L71.9789 36.3023ZM71.9787 36.302L72.3516 35.9291L71.9787 35.5561L71.6057 35.9291L71.9787 36.302ZM60.9017 52.1262L60.9017 47.9064L59.8468 47.9064L59.8468 52.1262L60.9017 52.1262ZM64.594 51.5987L60.3743 51.5987L60.3743 52.6537L64.594 52.6537L64.594 51.5987ZM75.8253 40.1491L64.2211 51.7532L64.967 52.4992L76.5712 40.895L75.8253 40.1491ZM76.1985 39.9946L76.1982 39.9946L76.1982 41.0495L76.1985 41.0495L76.1985 39.9946ZM75.6711 36.3023L75.6711 40.522L76.726 40.522L76.726 36.3023L75.6711 36.3023ZM71.9789 36.8297L76.1985 36.8297L76.1985 35.7748L71.9789 35.7748L71.9789 36.8297ZM71.6057 36.675L71.6059 36.6752L72.3519 35.9293L72.3516 35.9291L71.6057 36.675ZM60.7472 48.2794L72.3516 36.675L71.6057 35.9291L60.0013 47.5335L60.7472 48.2794Z" fill="#E2FDFF" mask="url(#path-1-inside-1_535_761)"/>
<mask id="path-3-inside-2_535_761" fill="white">
<path fill-rule="evenodd" clip-rule="evenodd" d="M44.0226 36.302H39.8028V40.5218L51.4071 52.1261V52.1265H55.6269V47.9067H55.6267L55.627 47.9064L44.0226 36.302Z"/>
</mask>
<path fill-rule="evenodd" clip-rule="evenodd" d="M44.0226 36.302H39.8028V40.5218L51.4071 52.1261V52.1265H55.6269V47.9067H55.6267L55.627 47.9064L44.0226 36.302Z" fill="#E2FDFF"/>
<path d="M39.8028 36.302V35.7745H39.2753V36.302H39.8028ZM44.0226 36.302L44.3956 35.929L44.2411 35.7745H44.0226V36.302ZM39.8028 40.5218H39.2753V40.7403L39.4298 40.8948L39.8028 40.5218ZM51.4071 52.1261H51.9346V51.9076L51.7801 51.7531L51.4071 52.1261ZM51.4071 52.1265H50.8796V52.654H51.4071V52.1265ZM55.6269 52.1265V52.654H56.1544V52.1265H55.6269ZM55.6269 47.9067H56.1544V47.3792H55.6269V47.9067ZM55.6267 47.9067L55.2537 47.5337L54.3532 48.4342H55.6267V47.9067ZM55.627 47.9064L56 48.2794L56.3729 47.9064L56 47.5334L55.627 47.9064ZM39.8028 36.8295H44.0226V35.7745H39.8028V36.8295ZM40.3303 40.5218V36.302H39.2753V40.5218H40.3303ZM51.7801 51.7531L40.1758 40.1488L39.4298 40.8948L51.0341 52.4991L51.7801 51.7531ZM51.9346 52.1265V52.1261H50.8796V52.1265H51.9346ZM55.6269 51.599H51.4071V52.654H55.6269V51.599ZM55.0994 47.9067V52.1265H56.1544V47.9067H55.0994ZM55.6267 48.4342H55.6269V47.3792H55.6267V48.4342ZM55.254 47.5334L55.2537 47.5337L55.9996 48.2797L56 48.2794L55.254 47.5334ZM43.6496 36.675L55.254 48.2794L56 47.5334L44.3956 35.929L43.6496 36.675Z" fill="#E2FDFF" mask="url(#path-3-inside-2_535_761)"/>
<mask id="path-5-inside-3_535_761" fill="white">
<path fill-rule="evenodd" clip-rule="evenodd" d="M64.594 56.8735H60.3743V61.0933L71.9787 72.6977L71.9788 72.6976V72.698H76.1985V68.4782H76.1982L76.1984 68.4779L64.594 56.8735Z"/>
</mask>
<path fill-rule="evenodd" clip-rule="evenodd" d="M64.594 56.8735H60.3743V61.0933L71.9787 72.6977L71.9788 72.6976V72.698H76.1985V68.4782H76.1982L76.1984 68.4779L64.594 56.8735Z" fill="#E2FDFF"/>
<path d="M60.3743 56.8735V56.3461H59.8468V56.8735H60.3743ZM64.594 56.8735L64.967 56.5006L64.8125 56.3461H64.594V56.8735ZM60.3743 61.0933H59.8468V61.3118L60.0013 61.4663L60.3743 61.0933ZM71.9787 72.6977L71.6057 73.0707L71.9787 73.4437L72.3516 73.0707L71.9787 72.6977ZM71.9788 72.6976H72.5062V71.4242L71.6058 72.3246L71.9788 72.6976ZM71.9788 72.698H71.4513V73.2254H71.9788V72.698ZM76.1985 72.698V73.2254H76.726V72.698H76.1985ZM76.1985 68.4782H76.726V67.9507H76.1985V68.4782ZM76.1982 68.4782L75.8252 68.1052L74.9248 69.0056H76.1982V68.4782ZM76.1984 68.4779L76.5714 68.8509L76.9444 68.4779L76.5714 68.105L76.1984 68.4779ZM60.3743 57.401H64.594V56.3461H60.3743V57.401ZM60.9017 61.0933V56.8735H59.8468V61.0933H60.9017ZM72.3516 72.3247L60.7472 60.7203L60.0013 61.4663L71.6057 73.0707L72.3516 72.3247ZM71.6058 72.3246L71.6057 72.3247L72.3516 73.0707L72.3517 73.0706L71.6058 72.3246ZM72.5062 72.698V72.6976H71.4513V72.698H72.5062ZM76.1985 72.1705H71.9788V73.2254H76.1985V72.1705ZM75.6711 68.4782V72.698H76.726V68.4782H75.6711ZM76.1982 69.0056H76.1985V67.9507H76.1982V69.0056ZM75.8255 68.105L75.8252 68.1052L76.5712 68.8512L76.5714 68.8509L75.8255 68.105ZM64.2211 57.2465L75.8255 68.8509L76.5714 68.105L64.967 56.5006L64.2211 57.2465Z" fill="#E2FDFF" mask="url(#path-5-inside-3_535_761)"/>
<mask id="path-7-inside-4_535_761" fill="white">
<path fill-rule="evenodd" clip-rule="evenodd" d="M39.8028 68.478L39.8028 72.6978L44.0226 72.6978L55.6268 61.0935L55.6269 61.0935L55.6269 61.0934L55.627 61.0934L55.6269 61.0933L55.6269 56.8737L51.4073 56.8737L51.4072 56.8736L39.8028 68.478Z"/>
</mask>
<path fill-rule="evenodd" clip-rule="evenodd" d="M39.8028 68.478L39.8028 72.6978L44.0226 72.6978L55.6268 61.0935L55.6269 61.0935L55.6269 61.0934L55.627 61.0934L55.6269 61.0933L55.6269 56.8737L51.4073 56.8737L51.4072 56.8736L39.8028 68.478Z" fill="#E2FDFF"/>
<path d="M39.8028 72.6978L39.2753 72.6978L39.2753 73.2252L39.8028 73.2252L39.8028 72.6978ZM39.8028 68.478L39.4298 68.105L39.2753 68.2595L39.2753 68.478L39.8028 68.478ZM44.0226 72.6978L44.0226 73.2252L44.2411 73.2252L44.3956 73.0707L44.0226 72.6978ZM55.6268 61.0935L55.6268 60.566L55.4083 60.566L55.2539 60.7205L55.6268 61.0935ZM55.6269 61.0935L55.6269 61.621L56.1544 61.621L56.1544 61.0935L55.6269 61.0935ZM55.6269 61.0934L55.2539 60.7205L55.0994 60.875L55.0994 61.0934L55.6269 61.0934ZM55.627 61.0934L56 61.4663L56.3729 61.0934L56 60.7204L55.627 61.0934ZM55.6269 61.0933L55.0994 61.0933L55.0994 61.3118L55.2539 61.4662L55.6269 61.0933ZM55.6269 56.8737L56.1544 56.8737L56.1544 56.3462L55.6269 56.3462L55.6269 56.8737ZM51.4073 56.8737L51.0344 57.2467L51.1888 57.4012L51.4073 57.4012L51.4073 56.8737ZM51.4072 56.8736L51.7802 56.5006L51.4072 56.1276L51.0342 56.5006L51.4072 56.8736ZM40.3303 72.6978L40.3303 68.478L39.2753 68.478L39.2753 72.6978L40.3303 72.6978ZM44.0226 72.1703L39.8028 72.1703L39.8028 73.2252L44.0226 73.2252L44.0226 72.1703ZM55.2539 60.7205L43.6496 72.3248L44.3956 73.0707L55.9998 61.4665L55.2539 60.7205ZM55.6269 60.566L55.6268 60.566L55.6268 61.621L55.6269 61.621L55.6269 60.566ZM55.0994 61.0934L55.0994 61.0935L56.1544 61.0935L56.1544 61.0934L55.0994 61.0934ZM55.254 60.7204L55.2539 60.7205L55.9999 61.4664L56 61.4663L55.254 60.7204ZM55.2539 61.4662L55.254 61.4663L56 60.7204L55.9999 60.7203L55.2539 61.4662ZM55.0994 56.8737L55.0994 61.0933L56.1544 61.0933L56.1544 56.8737L55.0994 56.8737ZM51.4073 57.4012L55.6269 57.4012L55.6269 56.3462L51.4073 56.3462L51.4073 57.4012ZM51.0342 57.2466L51.0344 57.2467L51.7803 56.5007L51.7802 56.5006L51.0342 57.2466ZM40.1758 68.851L51.7802 57.2466L51.0342 56.5006L39.4298 68.105L40.1758 68.851Z" fill="#E2FDFF" mask="url(#path-7-inside-4_535_761)"/>
<rect x="36.9011" y="33.4011" width="42.1978" height="42.1978" stroke="#E2FDFF" stroke-width="5.8022"/>
</g>
<defs>
<filter id="filter0_d_535_761" x="0" y="0.5" width="116" height="116" filterUnits="userSpaceOnUse" color-interpolation-filters="sRGB">
<feFlood flood-opacity="0" result="BackgroundImageFix"/>
<feColorMatrix in="SourceAlpha" type="matrix" values="0 0 0 0 0 0 0 0 0 0 0 0 0 0 0 0 0 0 127 0" result="hardAlpha"/>
<feOffset dy="4"/>
<feGaussianBlur stdDeviation="17"/>
<feColorMatrix type="matrix" values="0 0 0 0 0.885531 0 0 0 0 0.993132 0 0 0 0 1 0 0 0 0.6 0"/>
<feBlend mode="normal" in2="BackgroundImageFix" result="effect1_dropShadow_535_761"/>
<feBlend mode="normal" in="SourceGraphic" in2="effect1_dropShadow_535_761" result="shape"/>
</filter>
</defs>
</svg>
