<svg width="123" height="116" viewBox="0 0 123 116" fill="none" xmlns="http://www.w3.org/2000/svg">
<g filter="url(#filter0_d_537_769)">
<path fill-rule="evenodd" clip-rule="evenodd" d="M49.489 50.4222L61.2798 30L72.9308 50.1802L67.9054 53.0759L61.2798 41.6L54.5145 53.3178L49.489 50.4222ZM47.789 53.3667L47.7891 53.3667L52.8145 56.2623L52.8145 56.2624L47.789 53.3667ZM46.0839 56.3202L34 77.25H57.5956L57.5906 71.45H44.0459L51.1043 59.2245L46.0839 56.3202ZM64.4093 71.45L64.4043 77.25H88.5596L76.3356 56.0774L71.3152 58.9818L78.5137 71.45H64.4093ZM69.6054 56.0204L74.6309 53.1247L74.6308 53.1247L69.6054 56.0203L69.6054 56.0204Z" fill="#E2FDFF"/>
</g>
<defs>
<filter id="filter0_d_537_769" x="-1" y="-5" width="125" height="125" filterUnits="userSpaceOnUse" color-interpolation-filters="sRGB">
<feFlood flood-opacity="0" result="BackgroundImageFix"/>
<feColorMatrix in="SourceAlpha" type="matrix" values="0 0 0 0 0 0 0 0 0 0 0 0 0 0 0 0 0 0 127 0" result="hardAlpha"/>
<feOffset dy="4"/>
<feGaussianBlur stdDeviation="17"/>
<feComposite in2="hardAlpha" operator="out"/>
<feColorMatrix type="matrix" values="0 0 0 0 0.885531 0 0 0 0 0.993132 0 0 0 0 1 0 0 0 0.6 0"/>
<feBlend mode="normal" in2="BackgroundImageFix" result="effect1_dropShadow_537_769"/>
<feBlend mode="normal" in="SourceGraphic" in2="effect1_dropShadow_537_769" result="shape"/>
</filter>
</defs>
</svg>
