<svg width="122" height="122" viewBox="0 0 122 122" fill="none" xmlns="http://www.w3.org/2000/svg">
<g filter="url(#filter0_d_536_773)">
<path fill-rule="evenodd" clip-rule="evenodd" d="M57 30.7681L39.9382 46.8401L34.7634 68.75L41.6639 64.7659L45.1827 49.868L57 38.7362V30.7681ZM65 38.7362L76.8173 49.868L80.3375 64.7723L87.2381 68.7564L82.0617 46.8401L65 30.7681V38.7362ZM84.331 76.3156L77.4305 72.3316L61 77.2644L44.5632 72.3297L37.6626 76.3137L61 83.3201L84.331 76.3156Z" fill="#E2FDFF"/>
<path fill-rule="evenodd" clip-rule="evenodd" d="M40.2712 49.8106L43.0183 45.0526L51.9396 50.2033L49.1925 54.9613L40.2712 49.8106ZM63.5553 81.4927L58.0612 81.4927L58.0612 71.1913L63.5553 71.1913L63.5553 81.4927ZM82.0946 49.3817L79.3475 44.6237L70.4262 49.7744L73.1733 54.5324L82.0946 49.3817Z" fill="#E2FDFF"/>
</g>
<defs>
<filter id="filter0_d_536_773" x="-2" y="-5" width="125" height="126.32" filterUnits="userSpaceOnUse" color-interpolation-filters="sRGB">
<feFlood flood-opacity="0" result="BackgroundImageFix"/>
<feColorMatrix in="SourceAlpha" type="matrix" values="0 0 0 0 0 0 0 0 0 0 0 0 0 0 0 0 0 0 127 0" result="hardAlpha"/>
<feOffset dy="4"/>
<feGaussianBlur stdDeviation="17"/>
<feComposite in2="hardAlpha" operator="out"/>
<feColorMatrix type="matrix" values="0 0 0 0 0.885531 0 0 0 0 0.993132 0 0 0 0 1 0 0 0 0.6 0"/>
<feBlend mode="normal" in2="BackgroundImageFix" result="effect1_dropShadow_536_773"/>
<feBlend mode="normal" in="SourceGraphic" in2="effect1_dropShadow_536_773" result="shape"/>
</filter>
</defs>
</svg>
